<?xml version="1.0" encoding="UTF-8"?>
<!-- Generator: visioncortex VTracer 0.6.12 -->
<svg version="1.1" xmlns="http://www.w3.org/2000/svg" width="1254" height="1254">
<path d="M0 0 C413.82 0 827.64 0 1254 0 C1254 413.82 1254 827.64 1254 1254 C840.18 1254 426.36 1254 0 1254 C0 840.18 0 426.36 0 0 Z " fill="#000000" transform="translate(0,0)"/>
<path d="M0 0 C2.048 -0 4.095 -0.002 6.143 -0.004 C10.406 -0.006 14.668 0.007 18.93 0.03 C24.323 0.058 29.715 0.055 35.108 0.042 C39.329 0.035 43.551 0.043 47.772 0.056 C49.757 0.06 51.742 0.061 53.727 0.057 C72.257 0.037 90.785 1.533 108.734 6.371 C109.733 6.632 110.731 6.892 111.76 7.16 C121.919 9.866 131.537 13.199 141.07 17.676 C141.394 17.828 141.394 17.828 143.029 18.595 C150.45 22.086 157.851 25.616 165.234 29.184 C165.592 29.356 165.592 29.356 167.4 30.23 C177.985 35.356 188.403 40.704 198.664 46.457 C199.493 46.911 200.322 47.366 201.177 47.834 C202.805 48.738 204.431 49.648 206.037 50.591 C219.948 58.748 234.145 63.126 249.672 67.246 C253.143 68.177 256.612 69.115 260.077 70.069 C262.209 70.656 264.345 71.229 266.485 71.786 C277.688 74.848 287.808 80.028 295.297 89.059 C295.916 90.193 296.534 91.327 297.172 92.496 C297.59 93.246 298.007 93.996 298.438 94.768 C303.914 106.404 302.719 118.739 302.484 131.309 C302.459 133.658 302.436 136.008 302.416 138.357 C302.361 144.071 302.278 149.783 302.172 155.496 C302.722 155.566 302.722 155.566 305.508 155.922 C312.2 156.971 315.265 160.288 319.172 165.496 C320.913 170.718 320.526 176.217 320.609 181.684 C320.632 182.287 320.632 182.287 320.748 185.342 C320.833 192.113 320.448 196.639 316.055 201.939 C310.97 206.145 306.202 206.927 299.78 206.837 C298.96 206.837 298.139 206.838 297.294 206.838 C294.6 206.836 291.906 206.813 289.211 206.789 C287.336 206.783 285.461 206.779 283.587 206.776 C278.665 206.765 273.743 206.735 268.821 206.702 C263.793 206.671 258.766 206.658 253.738 206.643 C243.883 206.61 234.027 206.559 224.172 206.496 C224.041 207.109 223.911 207.722 223.776 208.354 C223.601 209.161 223.427 209.968 223.246 210.799 C223.075 211.598 222.903 212.397 222.726 213.219 C219.534 226.338 209.341 237.403 198.172 244.496 C184.159 252.043 168.837 255.595 153.188 251.06 C136.994 245.699 126.176 235.781 117.898 221.219 C116.172 217.496 116.172 217.496 113.172 207.496 C30.342 207.496 -52.488 207.496 -137.828 207.496 C-139.148 211.456 -140.468 215.416 -141.828 219.496 C-148.787 234.408 -159.827 243.758 -175.203 249.371 C-189.629 254.288 -203.806 253.872 -217.641 247.559 C-232.906 239.912 -242.078 227.327 -247.828 211.496 C-248.172 210.166 -248.508 208.833 -248.828 207.496 C-249.84 207.495 -250.852 207.493 -251.894 207.492 C-261.443 207.475 -270.991 207.432 -280.54 207.364 C-285.449 207.33 -290.357 207.305 -295.266 207.301 C-300.006 207.296 -304.745 207.268 -309.485 207.223 C-311.291 207.21 -313.096 207.205 -314.902 207.21 C-317.437 207.215 -319.971 207.189 -322.506 207.156 C-323.248 207.164 -323.989 207.173 -324.753 207.182 C-330.347 207.059 -333.686 205.202 -337.828 201.496 C-343.183 195.606 -342.219 187.841 -342.391 180.309 C-342.453 179.114 -342.516 177.92 -342.58 176.689 C-342.693 170.461 -342.379 166.251 -338.355 161.32 C-334.344 157.422 -330.271 155.592 -324.828 154.496 C-324.802 153.252 -324.777 152.008 -324.75 150.727 C-324.265 134.606 -321.021 121.687 -308.938 110.191 C-298.34 101.674 -286.608 98.475 -273.578 95.746 C-272.978 95.619 -272.978 95.619 -269.943 94.975 C-258.971 92.676 -247.958 90.605 -236.938 88.55 C-225.606 86.436 -214.32 84.176 -203.06 81.702 C-196.934 80.36 -190.802 79.084 -184.645 77.895 C-183.959 77.761 -183.273 77.628 -182.566 77.491 C-179.245 76.846 -175.922 76.209 -172.596 75.588 C-171.407 75.358 -170.217 75.128 -168.992 74.891 C-167.945 74.693 -166.898 74.496 -165.819 74.292 C-159.987 72.74 -155.414 69.637 -150.578 66.121 C-149.984 65.691 -149.39 65.261 -148.777 64.818 C-147.482 63.881 -146.189 62.942 -144.896 62.001 C-142.737 60.429 -140.572 58.864 -138.406 57.301 C-137.655 56.759 -136.904 56.216 -136.131 55.658 C-134.586 54.543 -133.041 53.429 -131.496 52.315 C-128.09 49.858 -124.687 47.397 -121.309 44.902 C-106.398 33.958 -90.623 24.26 -73.828 16.496 C-73.181 16.19 -72.533 15.883 -71.866 15.568 C-61.772 10.809 -51.621 7.297 -40.828 4.496 C-40.477 4.405 -40.477 4.405 -38.698 3.943 C-25.708 0.673 -13.355 -0.084 0 0 Z " fill="#FEFEFE" transform="translate(637.828125,487.50390625)"/>
<path d="M0 0 C8.649 6.071 14.311 13.643 18.297 23.426 C20.458 35.959 18.441 47.427 11.172 57.988 C4.214 66.82 -3.595 70.556 -14.078 74.051 C-25.654 74.99 -35.336 74.215 -44.898 66.891 C-53.615 59.28 -60.565 50.836 -61.535 38.875 C-62.031 26.939 -59.752 17.37 -51.93 8.051 C-38.412 -6.551 -17.461 -10.227 0 0 Z " fill="#020202" transform="translate(828.078125,648.94921875)"/>
<path d="M0 0 C0.823 -0.007 1.647 -0.014 2.495 -0.021 C13.629 0.309 23.95 6.453 31.5 14.438 C35.071 18.738 36.948 23.422 38.688 28.688 C38.852 29.183 38.852 29.183 39.688 31.688 C40.597 46.116 38.347 56.357 29.094 67.629 C22.29 75.058 12.849 79.085 2.891 80.059 C-6.049 80.209 -12.448 79.382 -20.312 74.688 C-21.385 74.089 -22.457 73.491 -23.562 72.875 C-32.199 66.005 -38.174 56.575 -40.312 45.688 C-41.528 33.098 -37.332 22.697 -29.859 12.754 C-21.891 3.719 -11.706 0.068 0 0 Z " fill="#020202" transform="translate(444.3125,643.3125)"/>
</svg>
