<?xml version="1.0" encoding="UTF-8"?>
<!-- Generator: visioncortex VTracer 0.6.12 -->
<svg version="1.1" xmlns="http://www.w3.org/2000/svg" width="1254" height="1254">
<path d="M0 0 C413.82 0 827.64 0 1254 0 C1254 413.82 1254 827.64 1254 1254 C840.18 1254 426.36 1254 0 1254 C0 840.18 0 426.36 0 0 Z " fill="#000000" transform="translate(0,0)"/>
<path d="M0 0 C2.32 -0.006 4.639 -0.013 6.959 -0.02 C13.221 -0.038 19.484 -0.043 25.747 -0.044 C29.672 -0.045 33.597 -0.05 37.522 -0.055 C50.542 -0.073 63.563 -0.082 76.583 -0.08 C77.283 -0.08 77.982 -0.08 78.703 -0.08 C79.053 -0.08 79.053 -0.08 80.825 -0.08 C92.154 -0.079 103.483 -0.098 114.812 -0.126 C126.498 -0.155 138.184 -0.169 149.87 -0.167 C156.409 -0.167 162.948 -0.172 169.488 -0.194 C175.647 -0.213 181.806 -0.213 187.966 -0.198 C190.207 -0.196 192.449 -0.201 194.69 -0.213 C229.485 -0.391 264.68 6.684 291.141 30.689 C297.893 37.492 303.448 44.504 308.473 52.666 C308.774 53.146 308.774 53.146 310.297 55.58 C311.528 57.547 312.755 59.516 313.979 61.486 C316.498 65.538 319.048 69.571 321.598 73.603 C322.076 74.361 322.554 75.119 323.046 75.9 C327.202 82.486 331.397 89.046 335.598 95.603 C336.273 96.658 336.948 97.712 337.644 98.799 C343.277 107.596 343.277 107.596 345.657 111.309 C357.432 129.693 357.432 129.693 362.973 138.853 C363.152 139.148 363.152 139.148 364.06 140.639 C368.902 148.733 369.889 156.043 369.82 165.412 C369.819 166.156 369.817 166.901 369.816 167.668 C369.81 170.022 369.798 172.375 369.785 174.728 C369.78 176.334 369.776 177.94 369.771 179.546 C369.761 183.461 369.743 187.376 369.723 191.291 C370.509 191.591 371.295 191.891 372.105 192.2 C378.343 194.799 382.165 200.365 384.996 206.298 C386.728 211.047 386.907 215.787 386.961 220.794 C386.969 221.514 386.977 222.233 386.985 222.974 C386.999 224.494 387.01 226.014 387.018 227.535 C387.029 229.068 387.05 230.601 387.079 232.134 C387.38 247.698 384.333 261.103 373.598 273.041 C363.766 282.282 351.578 284.569 338.664 284.705 C338.092 284.714 338.092 284.714 335.197 284.763 C331.559 284.823 327.922 284.869 324.285 284.916 C321.812 284.954 319.339 284.993 316.865 285.033 C310.818 285.128 304.77 285.214 298.723 285.291 C298.327 286.377 297.932 287.464 297.524 288.584 C296.992 290.031 296.459 291.477 295.926 292.923 C295.667 293.637 295.408 294.351 295.141 295.087 C289.131 311.32 277.769 322.277 262.723 330.291 C247.202 337.275 230.03 339.188 213.723 333.291 C204.055 329.198 196.07 323.84 188.723 316.291 C188.101 315.701 187.48 315.112 186.84 314.505 C182.692 310.274 180.021 305.463 177.348 300.228 C177.001 299.555 176.655 298.882 176.298 298.189 C175.977 297.53 175.655 296.871 175.324 296.193 C175.039 295.61 174.753 295.027 174.459 294.427 C173.723 292.291 173.723 292.291 172.723 285.291 C60.193 285.291 -52.337 285.291 -168.277 285.291 C-168.937 288.261 -169.597 291.231 -170.277 294.291 C-176.873 311.547 -189.848 323.742 -206.294 331.429 C-222.1 338.297 -239.259 338.255 -255.277 332.291 C-272.31 324.892 -284.373 311.57 -291.426 294.513 C-292.538 291.364 -293.277 288.644 -293.277 285.291 C-294.04 285.302 -294.803 285.313 -295.588 285.324 C-302.825 285.425 -310.061 285.501 -317.298 285.55 C-321.018 285.576 -324.736 285.611 -328.456 285.668 C-332.054 285.723 -335.652 285.752 -339.251 285.765 C-341.272 285.778 -343.292 285.817 -345.312 285.857 C-357.831 285.861 -367.175 282.36 -376.156 273.595 C-386.379 262.488 -387.905 248.427 -387.773 233.873 C-387.774 232.439 -387.775 231.006 -387.778 229.572 C-387.779 226.595 -387.767 223.618 -387.744 220.64 C-387.715 216.855 -387.718 213.07 -387.731 209.285 C-387.738 206.334 -387.73 203.384 -387.718 200.433 C-387.713 199.038 -387.713 197.643 -387.717 196.249 C-387.743 179.221 -383.495 164.938 -371.48 152.466 C-370.753 151.748 -370.026 151.03 -369.277 150.291 C-368.736 149.727 -368.195 149.164 -367.637 148.583 C-356.373 137.804 -340.977 135.136 -326.277 132.291 C-325.712 132.181 -325.712 132.181 -322.851 131.625 C-317.83 130.652 -312.809 129.686 -307.785 128.732 C-297.411 126.753 -287.093 124.554 -276.777 122.291 C-265.73 119.867 -254.675 117.536 -243.564 115.419 C-241.613 115.045 -239.662 114.663 -237.712 114.281 C-232.48 113.258 -227.268 112.261 -221.988 111.525 C-210.021 109.701 -202.759 104.093 -193.687 96.314 C-189.422 92.733 -184.969 89.399 -180.527 86.041 C-179.634 85.36 -178.74 84.68 -177.82 83.98 C-171.879 79.467 -165.876 75.063 -159.777 70.767 C-156.45 68.423 -153.159 66.03 -149.868 63.634 C-139.805 56.319 -129.612 49.217 -119.277 42.291 C-118.276 41.619 -117.275 40.948 -116.243 40.257 C-78.43 15.008 -46.012 -0.024 0 0 Z " fill="#010101" transform="translate(629.27734375,446.70947265625)"/>
<path d="M0 0 C2.32 -0.006 4.639 -0.013 6.959 -0.02 C13.221 -0.038 19.484 -0.043 25.747 -0.044 C29.672 -0.045 33.597 -0.05 37.522 -0.055 C50.542 -0.073 63.563 -0.082 76.583 -0.08 C77.283 -0.08 77.982 -0.08 78.703 -0.08 C79.053 -0.08 79.053 -0.08 80.825 -0.08 C92.154 -0.079 103.483 -0.098 114.812 -0.126 C126.498 -0.155 138.184 -0.169 149.87 -0.167 C156.409 -0.167 162.948 -0.172 169.488 -0.194 C175.647 -0.213 181.806 -0.213 187.966 -0.198 C190.207 -0.196 192.449 -0.201 194.69 -0.213 C229.485 -0.391 264.68 6.684 291.141 30.689 C297.893 37.492 303.448 44.504 308.473 52.666 C308.774 53.146 308.774 53.146 310.297 55.58 C311.528 57.547 312.755 59.516 313.979 61.486 C316.498 65.538 319.048 69.571 321.598 73.603 C322.076 74.361 322.554 75.119 323.046 75.9 C327.202 82.486 331.397 89.046 335.598 95.603 C336.273 96.658 336.948 97.712 337.644 98.799 C343.277 107.596 343.277 107.596 345.657 111.309 C357.432 129.693 357.432 129.693 362.973 138.853 C363.152 139.148 363.152 139.148 364.06 140.639 C368.902 148.733 369.889 156.043 369.82 165.412 C369.819 166.156 369.817 166.901 369.816 167.668 C369.81 170.022 369.798 172.375 369.785 174.728 C369.78 176.334 369.776 177.94 369.771 179.546 C369.761 183.461 369.743 187.376 369.723 191.291 C370.509 191.591 371.295 191.891 372.105 192.2 C378.343 194.799 382.165 200.365 384.996 206.298 C386.728 211.047 386.907 215.787 386.961 220.794 C386.969 221.514 386.977 222.233 386.985 222.974 C386.999 224.494 387.01 226.014 387.018 227.535 C387.029 229.068 387.05 230.601 387.079 232.134 C387.38 247.698 384.333 261.103 373.598 273.041 C363.766 282.282 351.578 284.569 338.664 284.705 C338.092 284.714 338.092 284.714 335.197 284.763 C331.559 284.823 327.922 284.869 324.285 284.916 C321.812 284.954 319.339 284.993 316.865 285.033 C310.818 285.128 304.77 285.214 298.723 285.291 C298.327 286.377 297.932 287.464 297.524 288.584 C296.992 290.031 296.459 291.477 295.926 292.923 C295.667 293.637 295.408 294.351 295.141 295.087 C289.131 311.32 277.769 322.277 262.723 330.291 C247.202 337.275 230.03 339.188 213.723 333.291 C204.055 329.198 196.07 323.84 188.723 316.291 C188.101 315.701 187.48 315.112 186.84 314.505 C182.692 310.274 180.021 305.463 177.348 300.228 C177.001 299.555 176.655 298.882 176.298 298.189 C175.977 297.53 175.655 296.871 175.324 296.193 C175.039 295.61 174.753 295.027 174.459 294.427 C173.723 292.291 173.723 292.291 172.723 285.291 C60.193 285.291 -52.337 285.291 -168.277 285.291 C-168.937 288.261 -169.597 291.231 -170.277 294.291 C-176.873 311.547 -189.848 323.742 -206.294 331.429 C-222.1 338.297 -239.259 338.255 -255.277 332.291 C-272.31 324.892 -284.373 311.57 -291.426 294.513 C-292.538 291.364 -293.277 288.644 -293.277 285.291 C-294.04 285.302 -294.803 285.313 -295.588 285.324 C-302.825 285.425 -310.061 285.501 -317.298 285.55 C-321.018 285.576 -324.736 285.611 -328.456 285.668 C-332.054 285.723 -335.652 285.752 -339.251 285.765 C-341.272 285.778 -343.292 285.817 -345.312 285.857 C-357.831 285.861 -367.175 282.36 -376.156 273.595 C-386.379 262.488 -387.905 248.427 -387.773 233.873 C-387.774 232.439 -387.775 231.006 -387.778 229.572 C-387.779 226.595 -387.767 223.618 -387.744 220.64 C-387.715 216.855 -387.718 213.07 -387.731 209.285 C-387.738 206.334 -387.73 203.384 -387.718 200.433 C-387.713 199.038 -387.713 197.643 -387.717 196.249 C-387.743 179.221 -383.495 164.938 -371.48 152.466 C-370.753 151.748 -370.026 151.03 -369.277 150.291 C-368.736 149.727 -368.195 149.164 -367.637 148.583 C-356.373 137.804 -340.977 135.136 -326.277 132.291 C-325.712 132.181 -325.712 132.181 -322.851 131.625 C-317.83 130.652 -312.809 129.686 -307.785 128.732 C-297.411 126.753 -287.093 124.554 -276.777 122.291 C-265.73 119.867 -254.675 117.536 -243.564 115.419 C-241.613 115.045 -239.662 114.663 -237.712 114.281 C-232.48 113.258 -227.268 112.261 -221.988 111.525 C-210.021 109.701 -202.759 104.093 -193.687 96.314 C-189.422 92.733 -184.969 89.399 -180.527 86.041 C-179.634 85.36 -178.74 84.68 -177.82 83.98 C-171.879 79.467 -165.876 75.063 -159.777 70.767 C-156.45 68.423 -153.159 66.03 -149.868 63.634 C-139.805 56.319 -129.612 49.217 -119.277 42.291 C-118.276 41.619 -117.275 40.948 -116.243 40.257 C-78.43 15.008 -46.012 -0.024 0 0 Z M87.723 17.291 C87.723 47.321 87.723 77.351 87.723 108.291 C93.938 108.303 93.938 108.303 125.391 108.369 C133.252 108.394 141.113 108.42 148.975 108.451 C161.46 108.499 173.946 108.544 186.432 108.562 C195.525 108.575 204.617 108.601 213.71 108.645 C218.525 108.668 223.34 108.683 228.155 108.682 C232.687 108.682 237.218 108.7 241.75 108.732 C243.413 108.74 245.077 108.742 246.741 108.736 C249.012 108.73 251.282 108.748 253.554 108.772 C254.825 108.775 256.096 108.779 257.406 108.783 C261.325 109.383 263.005 110.438 265.723 113.291 C266.236 116.887 266.26 119.196 264.649 122.478 C261.831 125.13 259.075 124.844 255.402 124.797 C255.025 124.8 255.025 124.8 253.114 124.815 C250.564 124.831 248.014 124.818 245.464 124.805 C243.625 124.811 241.786 124.818 239.948 124.826 C234.879 124.845 229.81 124.839 224.742 124.828 C219.281 124.821 213.821 124.837 208.361 124.85 C197.657 124.872 186.954 124.872 176.25 124.863 C167.553 124.857 158.857 124.858 150.16 124.865 C149.542 124.865 149.542 124.865 146.414 124.867 C143.904 124.869 141.393 124.871 138.883 124.873 C115.99 124.889 93.097 124.882 70.203 124.865 C49.298 124.851 28.392 124.859 7.487 124.887 C-15.989 124.919 -39.465 124.934 -62.94 124.924 C-65.442 124.923 -67.944 124.922 -70.447 124.921 C-71.678 124.92 -72.909 124.92 -74.178 124.919 C-82.866 124.917 -91.555 124.927 -100.243 124.941 C-110.829 124.959 -121.414 124.959 -132 124.936 C-137.404 124.925 -142.808 124.922 -148.212 124.94 C-153.156 124.957 -158.099 124.951 -163.042 124.926 C-164.834 124.921 -166.626 124.925 -168.418 124.938 C-170.848 124.954 -173.276 124.939 -175.705 124.917 C-176.407 124.929 -177.108 124.941 -177.831 124.953 C-181.622 124.882 -183.164 124.384 -186.126 121.939 C-188.277 119.291 -188.277 119.291 -190.277 116.291 C-193.175 117.61 -195.239 119.105 -197.59 121.228 C-202.464 125.001 -207.768 125.697 -213.691 126.65 C-217.277 127.291 -217.277 127.291 -220.164 128.279 C-224.216 129.596 -228.255 130.134 -232.465 130.728 C-237.608 131.495 -242.657 132.248 -247.652 133.728 C-257.145 136.541 -267.042 137.966 -276.769 139.747 C-289.763 142.131 -302.669 144.855 -315.56 147.741 C-323.614 149.532 -331.662 151.129 -339.792 152.535 C-349.192 154.572 -357.319 159.878 -363 167.646 C-366.427 173.077 -370.277 179.679 -370.277 186.291 C-369.549 186.296 -368.821 186.302 -368.071 186.308 C-361.2 186.366 -354.329 186.438 -347.458 186.526 C-343.926 186.571 -340.394 186.61 -336.862 186.637 C-332.798 186.668 -328.735 186.723 -324.672 186.779 C-323.407 186.785 -322.142 186.792 -320.839 186.798 C-319.658 186.818 -318.478 186.838 -317.261 186.858 C-316.742 186.864 -316.742 186.864 -314.118 186.892 C-310.84 187.352 -308.923 188.324 -306.277 190.291 C-305.684 192.447 -305.684 192.447 -305.777 194.791 C-305.788 195.564 -305.798 196.337 -305.809 197.134 C-306.4 199.853 -307.063 200.617 -309.277 202.291 C-311.954 202.689 -311.954 202.689 -315.218 202.723 C-316.439 202.743 -317.66 202.762 -318.918 202.783 C-320.236 202.789 -321.555 202.796 -322.914 202.802 C-324.277 202.819 -325.641 202.837 -327.004 202.857 C-330.59 202.904 -334.175 202.934 -337.761 202.96 C-341.421 202.99 -345.08 203.036 -348.74 203.082 C-355.919 203.168 -363.098 203.235 -370.277 203.291 C-370.354 209.837 -370.406 216.384 -370.442 222.932 C-370.457 225.157 -370.478 227.382 -370.504 229.606 C-370.54 232.814 -370.557 236.021 -370.57 239.228 C-370.586 240.215 -370.601 241.202 -370.617 242.218 C-370.619 249.087 -369.835 254.792 -365.664 260.498 C-365.103 261.027 -364.543 261.557 -363.965 262.103 C-363.688 262.374 -363.688 262.374 -362.289 263.748 C-357.774 267.21 -353.855 268.668 -348.18 268.631 C-346.999 268.631 -345.819 268.631 -344.602 268.63 C-343.342 268.615 -342.083 268.599 -340.785 268.583 C-340.135 268.581 -340.135 268.581 -336.842 268.571 C-333.4 268.559 -329.958 268.53 -326.515 268.497 C-322.996 268.466 -319.476 268.452 -315.957 268.437 C-309.064 268.405 -302.171 268.354 -295.277 268.291 C-295.151 267.35 -295.025 266.408 -294.895 265.439 C-294.809 264.816 -294.809 264.816 -294.375 261.666 C-294.291 261.051 -294.291 261.051 -293.867 257.939 C-291.132 241.028 -281.207 226.417 -267.551 216.263 C-252.972 206.551 -236.566 202.712 -219.266 205.943 C-201.461 210.278 -186.787 219.302 -176.734 234.759 C-170.457 245.664 -167.528 255.789 -166.277 268.291 C-55.067 268.291 56.143 268.291 170.723 268.291 C171.218 265.651 171.218 265.651 173.723 252.291 C179.354 234.036 190.723 220.206 207.598 211.041 C208.96 210.428 210.337 209.847 211.723 209.291 C212.165 209.105 212.165 209.105 214.402 208.166 C221.306 205.636 227.689 204.929 234.973 204.916 C235.8 204.914 236.627 204.912 237.479 204.911 C246.342 205.07 253.86 206.907 261.723 210.978 C262.416 211.333 263.11 211.687 263.824 212.052 C269.291 214.919 274.136 218.137 278.723 222.291 C279.064 222.586 279.064 222.586 280.793 224.083 C292.441 234.823 297.544 249.142 299.328 264.517 C299.723 267.291 299.723 267.291 300.723 268.291 C302.101 268.409 303.485 268.461 304.868 268.483 C305.751 268.499 306.633 268.516 307.542 268.532 C311.625 268.577 315.709 268.618 319.792 268.641 C321.935 268.657 324.077 268.684 326.219 268.723 C349.18 269.132 349.18 269.132 358.723 263.291 C359.346 262.91 359.97 262.53 360.613 262.138 C365.651 258.507 367.823 252.99 369.723 247.291 C369.855 244.775 369.935 242.288 369.961 239.771 C369.969 239.035 369.977 238.299 369.985 237.54 C369.999 235.983 370.01 234.425 370.018 232.867 C370.029 231.28 370.05 229.692 370.079 228.105 C370.122 225.806 370.138 223.508 370.148 221.208 C370.166 220.505 370.183 219.802 370.201 219.077 C370.179 214.018 368.89 211.188 365.723 207.291 C363.469 205.751 363.469 205.751 361.16 204.666 C357.636 202.99 355.641 201.741 353.723 198.291 C353.309 195.238 353.377 192.21 353.422 189.134 C353.414 187.288 353.406 185.442 353.396 183.595 C353.399 180.703 353.41 177.812 353.438 174.92 C353.525 163.301 353.394 154.255 346.723 144.291 C346.431 143.813 346.431 143.813 344.956 141.395 C343.094 138.367 341.169 135.39 339.223 132.416 C337.798 130.214 336.373 128.012 334.949 125.81 C334.594 125.263 334.594 125.263 332.798 122.496 C329.703 117.716 326.649 112.911 323.598 108.103 C322.447 106.293 321.296 104.483 320.145 102.673 C318.434 99.983 316.724 97.293 315.014 94.602 C314.448 93.713 313.883 92.824 313.301 91.908 C312.732 91.013 312.164 90.118 311.578 89.197 C310.427 87.389 309.275 85.582 308.122 83.777 C304.925 78.773 301.763 73.75 298.637 68.701 C297.943 67.591 297.249 66.482 296.535 65.339 C295.205 63.212 293.886 61.08 292.579 58.94 C280.279 39.373 260.628 27.763 238.785 21.478 C238.452 21.381 238.452 21.381 236.767 20.887 C220.365 16.503 203.483 17.016 186.657 17.088 C183.169 17.1 179.68 17.101 176.191 17.104 C169.612 17.11 163.032 17.126 156.452 17.146 C148.212 17.171 139.971 17.182 131.73 17.193 C117.061 17.212 102.392 17.252 87.723 17.291 Z " fill="#F9F9F9" transform="translate(629.27734375,446.70947265625)"/>
<path d="M0 0 C2.11 0.004 4.22 0.007 6.33 0.009 C11.837 0.016 17.344 0.036 22.851 0.058 C29.484 0.082 36.116 0.091 42.748 0.103 C52.783 0.122 62.817 0.161 72.852 0.195 C72.852 30.225 72.852 60.255 72.852 91.195 C-8.328 91.195 -89.508 91.195 -173.148 91.195 C-173.478 89.875 -173.808 88.555 -174.148 87.195 C-169.059 82.726 -163.808 78.622 -158.336 74.633 C-157.507 74.026 -156.678 73.419 -155.824 72.793 C-153.268 70.923 -150.709 69.059 -148.148 67.195 C-147.767 66.917 -147.767 66.917 -145.835 65.508 C-129.311 53.469 -112.696 41.547 -95.406 30.625 C-93.826 29.624 -92.249 28.617 -90.676 27.605 C-61.149 8.613 -35.181 -0.185 0 0 Z " fill="#020202" transform="translate(628.1484375,463.8046875)"/>
<path d="M0 0 C0.387 0.122 0.387 0.122 2.348 0.742 C14.714 5.062 23.954 14.384 29.969 25.816 C32.892 32.006 33.542 38.266 34 45 C34.044 45.38 34.044 45.38 34.27 47.301 C35.14 59.339 28.777 71.313 21.438 80.438 C17.718 84.348 13.622 87.253 9 90 C8.176 90.521 7.353 91.042 6.504 91.578 C-3.199 97.088 -15.546 97.48 -26.305 95.344 C-40.612 91.033 -50.741 82.182 -57.875 69.125 C-63.916 55.957 -64.68 42.633 -60 29 C-54.238 15.716 -45.248 6.758 -32.156 0.68 C-21.895 -3.265 -10.421 -3.533 0 0 Z " fill="#020202" transform="translate(879,670)"/>
<path d="M0 0 C2.265 1.442 4.365 2.988 6.477 4.645 C7.152 5.123 7.827 5.601 8.523 6.094 C17.181 12.755 23.859 24.857 25.477 35.645 C26.803 50.807 22.871 64.339 13.359 76.309 C4.308 86.131 -7.453 91.879 -20.762 92.891 C-34.433 93.384 -46.43 89.131 -56.555 79.766 C-66.682 68.772 -72.194 55.869 -71.994 40.937 C-71.431 27.561 -65.44 16.05 -55.836 6.832 C-40.064 -6.584 -18.451 -9.911 0 0 Z " fill="#020202" transform="translate(421.5234375,673.35546875)"/>
<path d="M0 0 C0.66 0.33 1.32 0.66 2 1 C-2.62 5.62 -7.24 10.24 -12 15 C-12 10.097 -8.298 7.387 -5 4 C-3.375 2.617 -1.726 1.255 0 0 Z " fill="#232323" transform="translate(371,676)"/>
<path d="M0 0 C0.66 0.33 1.32 0.66 2 1 C-1.96 4.96 -5.92 8.92 -10 13 C-10.66 12.67 -11.32 12.34 -12 12 C-10.755 10.558 -9.504 9.122 -8.25 7.688 C-7.554 6.887 -6.858 6.086 -6.141 5.262 C-4.209 3.22 -2.301 1.601 0 0 Z " fill="#2B2B2B" transform="translate(837,676)"/>
</svg>
