<?xml version="1.0" encoding="UTF-8"?>
<!-- Generator: visioncortex VTracer 0.6.12 -->
<svg version="1.1" xmlns="http://www.w3.org/2000/svg" width="1254" height="1254">
<path d="M0 0 C413.82 0 827.64 0 1254 0 C1254 413.82 1254 827.64 1254 1254 C840.18 1254 426.36 1254 0 1254 C0 840.18 0 426.36 0 0 Z " fill="#000000" transform="translate(0,0)"/>
<path d="M0 0 C10.457 -0.07 20.915 -0.123 31.372 -0.155 C36.228 -0.171 41.084 -0.192 45.94 -0.226 C50.628 -0.259 55.316 -0.277 60.004 -0.285 C61.791 -0.29 63.578 -0.301 65.365 -0.317 C67.871 -0.339 70.377 -0.342 72.883 -0.341 C73.619 -0.351 74.355 -0.362 75.113 -0.373 C79.819 -0.345 83.005 0.517 87 3 C91.691 8.198 92.149 11.512 92.158 18.333 C92.163 19.195 92.168 20.057 92.173 20.945 C92.184 22.821 92.192 24.696 92.199 26.572 C92.211 29.539 92.23 32.505 92.252 35.472 C92.314 43.909 92.368 52.346 92.401 60.783 C92.422 65.94 92.458 71.097 92.502 76.254 C92.516 78.221 92.525 80.189 92.528 82.156 C92.533 84.907 92.556 87.657 92.583 90.408 C92.58 91.222 92.577 92.037 92.574 92.876 C92.639 97.265 92.872 99.851 96 103 C98.212 103.5 98.212 103.5 100.85 103.499 C101.856 103.509 102.861 103.519 103.897 103.529 C105.005 103.519 106.113 103.509 107.254 103.499 C108.428 103.504 109.603 103.51 110.813 103.515 C114.078 103.526 117.343 103.519 120.609 103.505 C124.128 103.494 127.648 103.506 131.167 103.515 C137.268 103.528 143.369 103.527 149.47 103.516 C158.298 103.501 167.125 103.511 175.953 103.528 C190.283 103.554 204.613 103.565 218.944 103.564 C219.802 103.564 220.66 103.564 221.544 103.564 C225.02 103.564 228.497 103.563 231.973 103.563 C241.537 103.562 251.101 103.563 260.665 103.566 C261.521 103.566 262.377 103.567 263.259 103.567 C277.532 103.571 291.804 103.588 306.076 103.611 C314.881 103.625 323.687 103.628 332.492 103.617 C338.526 103.609 344.56 103.612 350.594 103.624 C354.077 103.63 357.559 103.631 361.041 103.619 C364.816 103.608 368.59 103.616 372.365 103.628 C373.466 103.621 374.567 103.613 375.702 103.605 C381.205 103.643 385.29 103.811 390 107 C393.901 111.323 395.126 113.703 395.114 119.459 C395.113 120.601 395.113 121.742 395.113 122.917 C395.108 124.154 395.103 125.39 395.098 126.664 C395.096 127.926 395.095 129.189 395.093 130.489 C395.089 133.846 395.08 137.203 395.069 140.56 C395.058 143.986 395.054 147.411 395.049 150.836 C395.038 157.557 395.021 164.279 395 171 C393.966 171.119 392.932 171.238 391.866 171.361 C390.498 171.528 389.13 171.695 387.762 171.863 C387.081 171.94 386.401 172.017 385.7 172.097 C379.949 172.818 377.077 173.923 373 178 C368.712 183.975 368.446 188.659 368.574 195.895 C368.578 196.923 368.581 197.952 368.584 199.011 C368.595 201.174 368.614 203.336 368.643 205.499 C368.688 208.819 368.705 212.139 368.717 215.459 C368.73 217.563 368.745 219.666 368.762 221.77 C368.765 222.267 368.765 222.267 368.784 224.787 C368.797 225.705 368.81 226.624 368.823 227.57 C368.828 227.974 368.828 227.974 368.853 230.022 C369 232 369 232 370 234 C350.86 234 331.72 234 312 234 C311.34 229.71 310.68 225.42 310 221 C305.212 203.461 293.914 189.892 278.41 180.789 C273.105 178.006 267.682 175.881 262 174 C261.306 173.754 260.613 173.508 259.898 173.254 C245.879 168.929 228.857 172.643 215.84 178.496 C200.525 186.606 188.996 199.373 182.625 215.5 C181 221 181 221 179 234 C83.3 234 -12.4 234 -111 234 C-111.66 231.36 -111.66 231.36 -115 218 C-121.724 199.464 -133.36 186.591 -151 178 C-154.617 176.448 -158.238 175.149 -162 174 C-163.238 173.587 -164.475 173.175 -165.75 172.75 C-181.782 169.173 -199.517 173.312 -213.426 181.613 C-224.453 188.706 -231.779 197.585 -238 209 C-238.241 209.336 -238.241 209.336 -239.462 211.037 C-241.667 215.284 -242.337 219.632 -243.188 224.312 C-243.365 225.244 -243.542 226.175 -243.725 227.135 C-244.159 229.422 -244.583 231.71 -245 234 C-254.631 234.023 -264.262 234.041 -273.893 234.052 C-278.365 234.057 -282.837 234.064 -287.308 234.075 C-291.62 234.086 -295.932 234.092 -300.244 234.095 C-301.892 234.097 -303.541 234.1 -305.19 234.106 C-307.491 234.113 -309.792 234.114 -312.094 234.114 C-313.406 234.116 -314.718 234.118 -316.07 234.12 C-319 234 -319 234 -320 233 C-320.1 230.157 -320.139 227.343 -320.125 224.5 C-320.129 223.702 -320.133 222.904 -320.137 222.082 C-320.127 216.127 -320.127 216.127 -319 215 C-316.368 214.889 -313.758 214.838 -311.125 214.824 C-309.483 214.801 -307.841 214.777 -306.199 214.752 C-303.61 214.717 -301.021 214.688 -298.432 214.674 C-277.92 214.546 -277.92 214.546 -271.163 208.302 C-265.939 201.98 -266.145 194.768 -266.328 186.979 C-266.375 184.805 -266.369 182.637 -266.355 180.463 C-266.419 172.506 -266.833 167.385 -272.562 161.355 C-277.264 157.535 -280.491 156.914 -286.422 156.684 C-287.447 156.642 -288.471 156.6 -289.527 156.557 C-290.591 156.517 -291.654 156.478 -292.75 156.438 C-293.829 156.394 -294.908 156.351 -296.02 156.307 C-298.68 156.201 -301.34 156.099 -304 156 C-304.811 144.162 -303.917 135.635 -296.359 125.883 C-290.553 119.561 -284.121 116.078 -275.614 114.997 C-274.372 114.833 -273.131 114.669 -271.852 114.501 C-270.581 114.335 -269.31 114.17 -268 114 C-265.633 113.657 -263.266 113.31 -260.899 112.96 C-221.483 107.265 -182.519 104.133 -142.68 104.043 C-141.661 104.041 -140.643 104.038 -139.594 104.036 C-127.175 104.012 -114.756 104.057 -102.337 104.133 C-85.378 104.236 -68.419 104.274 -51.46 104.279 C-45.542 104.283 -39.625 104.31 -33.707 104.355 C-30.081 104.38 -26.454 104.389 -22.828 104.394 C-21.149 104.4 -19.47 104.413 -17.791 104.433 C-15.507 104.46 -13.225 104.462 -10.942 104.458 C-9.666 104.466 -8.389 104.474 -7.075 104.483 C-4 104 -4 104 -2.091 102.239 C-0.924 99.844 -0.618 98.371 -0.601 95.723 C-0.589 94.876 -0.576 94.029 -0.563 93.156 C-0.565 92.235 -0.566 91.315 -0.568 90.366 C-0.557 89.39 -0.547 88.414 -0.537 87.409 C-0.507 84.184 -0.497 80.959 -0.488 77.734 C-0.471 75.498 -0.453 73.262 -0.434 71.025 C-0.386 65.14 -0.357 59.255 -0.33 53.369 C-0.301 47.363 -0.254 41.357 -0.209 35.352 C-0.123 23.568 -0.056 11.784 0 0 Z " fill="#000000" transform="translate(580,454)"/>
<path d="M0 0 C1.795 -0.007 3.59 -0.016 5.385 -0.026 C10.228 -0.048 15.071 -0.046 19.914 -0.037 C23.97 -0.032 28.025 -0.039 32.081 -0.046 C41.653 -0.063 51.225 -0.06 60.797 -0.043 C70.647 -0.026 80.496 -0.042 90.346 -0.074 C98.829 -0.101 107.312 -0.108 115.794 -0.1 C120.85 -0.095 125.904 -0.097 130.959 -0.117 C135.714 -0.136 140.468 -0.13 145.222 -0.105 C146.958 -0.1 148.695 -0.104 150.431 -0.116 C161.363 -0.19 171.74 0.097 180.423 7.714 C184.807 12.214 187.209 16.533 188.938 22.533 C189.122 23.112 189.307 23.691 189.497 24.288 C190.14 27.566 190.068 30.822 190.051 34.148 C190.051 34.909 190.051 35.67 190.051 36.455 C190.051 38.965 190.043 41.476 190.035 43.987 C190.033 45.73 190.032 47.473 190.031 49.216 C190.027 53.799 190.017 58.383 190.006 62.966 C189.996 67.645 189.991 72.323 189.986 77.002 C189.976 86.179 189.959 95.356 189.938 104.533 C190.231 104.533 190.231 104.533 191.715 104.529 C226.495 104.439 261.275 104.371 296.056 104.329 C300.234 104.324 304.412 104.319 308.59 104.314 C309.422 104.313 310.253 104.312 311.11 104.311 C324.57 104.293 338.03 104.262 351.49 104.225 C365.305 104.187 379.121 104.165 392.936 104.157 C401.458 104.152 409.98 104.134 418.502 104.102 C424.349 104.081 430.197 104.074 436.044 104.079 C439.415 104.082 442.786 104.076 446.158 104.057 C449.82 104.037 453.481 104.042 457.143 104.052 C458.199 104.041 459.256 104.029 460.344 104.017 C470.783 104.101 478.465 107.273 486.023 114.444 C491.278 120.18 493.067 125.729 493.051 133.404 C493.051 134.584 493.051 135.765 493.051 136.982 C493.046 138.252 493.04 139.522 493.035 140.83 C493.034 142.134 493.032 143.438 493.031 144.782 C493.027 148.24 493.017 151.699 493.006 155.158 C492.996 158.691 492.991 162.223 492.986 165.756 C492.976 172.682 492.959 179.608 492.938 186.533 C494.942 186.756 496.946 186.978 498.951 187.201 C501.546 187.635 503.178 188.554 505.25 190.158 C505.886 190.625 506.521 191.092 507.176 191.573 C512.226 197.194 512.384 203.377 512.336 210.561 C512.339 211.509 512.342 212.456 512.345 213.433 C512.347 215.429 512.341 217.425 512.329 219.421 C512.313 222.458 512.328 225.494 512.348 228.531 C512.346 230.479 512.342 232.426 512.336 234.373 C512.342 235.272 512.348 236.172 512.354 237.098 C512.262 245.481 510.188 252.465 504.178 258.572 C493.92 267.551 480.719 266.188 467.984 266.022 C465.872 266.012 463.759 266.005 461.646 266 C456.122 265.981 450.599 265.932 445.075 265.877 C439.424 265.825 433.773 265.803 428.121 265.778 C417.06 265.724 405.999 265.639 394.938 265.533 C394.806 266.288 394.674 267.043 394.538 267.821 C394.362 268.811 394.186 269.802 394.005 270.822 C393.832 271.804 393.659 272.785 393.48 273.797 C390.537 288.637 380.079 302.655 367.938 311.346 C366.283 312.427 364.617 313.491 362.938 314.533 C362.231 314.995 361.525 315.456 360.797 315.932 C346.633 324.588 328.394 326.196 312.324 322.651 C294.654 317.929 280.611 306.907 270.938 291.533 C266.388 283.662 261.938 274.82 261.938 265.533 C165.908 265.533 69.878 265.533 -29.062 265.533 C-29.393 268.173 -29.722 270.813 -30.062 273.533 C-34.788 290.909 -45.558 305.368 -61.062 314.533 C-67.48 318.199 -73.918 320.678 -81.062 322.533 C-81.661 322.705 -82.259 322.877 -82.875 323.055 C-94.66 325.634 -110.308 325.019 -121.062 319.533 C-121.635 319.248 -121.635 319.248 -124.531 317.803 C-142.356 308.473 -154.137 293.839 -160.484 274.834 C-161.256 271.765 -161.629 268.666 -162.062 265.533 C-163.034 265.534 -164.006 265.535 -165.008 265.536 C-174.188 265.539 -183.369 265.512 -192.549 265.453 C-197.268 265.424 -201.987 265.406 -206.707 265.413 C-211.265 265.42 -215.823 265.397 -220.381 265.355 C-222.116 265.344 -223.851 265.343 -225.586 265.353 C-242.006 265.435 -242.006 265.435 -247.755 260.078 C-252.719 254.216 -252.552 248.525 -252.5 241.158 C-252.52 240.156 -252.54 239.153 -252.561 238.119 C-252.556 230.599 -251.35 224.976 -246.062 219.44 C-245.403 218.976 -244.743 218.512 -244.062 218.033 C-243.403 217.549 -242.743 217.064 -242.062 216.565 C-240.062 215.533 -240.062 215.533 -236.062 215.533 C-236.071 214.796 -236.08 214.058 -236.089 213.298 C-236.17 206.297 -236.231 199.296 -236.27 192.295 C-236.29 188.697 -236.319 185.099 -236.364 181.501 C-236.408 178.019 -236.432 174.537 -236.442 171.055 C-236.453 169.101 -236.484 167.147 -236.516 165.193 C-236.519 151.524 -232.436 139.832 -223.289 129.537 C-212.638 119.448 -201.278 116.452 -187.213 114.891 C-183.673 114.489 -180.142 114.036 -176.609 113.576 C-164.755 112.041 -152.891 110.596 -141.009 109.291 C-138.735 109.039 -136.463 108.776 -134.193 108.502 C-129.527 107.95 -124.99 107.461 -120.289 107.573 C-115.364 107.6 -111.059 107.491 -107.341 103.845 C-103.588 99.23 -100.599 94.17 -97.596 89.049 C-95.313 85.304 -92.686 81.87 -90 78.408 C-85.404 72.375 -80.985 66.237 -76.63 60.027 C-72.472 54.099 -68.253 48.217 -64 42.357 C-61.186 38.48 -58.392 34.593 -55.633 30.678 C-40.312 9.013 -26.939 -0.112 0 0 Z M82.938 15.533 C82.932 16.777 82.926 18.021 82.92 19.303 C82.863 31.016 82.79 42.729 82.702 54.441 C82.657 60.463 82.618 66.485 82.591 72.507 C82.565 78.317 82.525 84.126 82.474 89.936 C82.458 92.154 82.446 94.373 82.44 96.591 C82.43 99.694 82.402 102.797 82.37 105.9 C82.371 106.82 82.373 107.741 82.374 108.69 C82.362 109.537 82.349 110.383 82.336 111.256 C82.332 111.99 82.327 112.724 82.322 113.48 C81.791 116.318 81.077 117.57 78.938 119.533 C75.788 120.024 75.788 120.024 71.814 120.012 C71.448 120.014 71.448 120.014 69.599 120.022 C67.14 120.028 64.683 120.006 62.224 119.984 C60.463 119.983 58.701 119.984 56.939 119.986 C53.132 119.988 49.324 119.978 45.517 119.958 C39.441 119.928 33.366 119.931 27.291 119.939 C11.079 119.955 -5.133 119.927 -21.344 119.882 C-35.023 119.845 -48.701 119.834 -62.379 119.869 C-63.401 119.872 -64.423 119.874 -65.476 119.877 C-94.234 119.961 -122.404 120.786 -150.853 125.42 C-160.251 126.943 -169.713 127.822 -179.188 128.721 C-180.773 128.874 -182.358 129.027 -183.943 129.181 C-184.623 129.246 -185.303 129.312 -186.003 129.38 C-197.791 130.574 -206.208 134.069 -214.312 142.846 C-221.551 151.983 -221.557 160.331 -221.062 171.533 C-220.402 171.548 -219.742 171.563 -219.062 171.578 C-216.041 171.653 -213.021 171.749 -210 171.846 C-209.481 171.857 -209.481 171.857 -206.854 171.914 C-200.001 172.154 -194.415 172.535 -189.102 177.287 C-188.635 177.884 -188.168 178.481 -187.688 179.096 C-187.205 179.695 -186.723 180.295 -186.227 180.912 C-182.722 185.794 -183.721 192.071 -183.657 197.862 C-183.636 199.339 -183.602 200.816 -183.555 202.292 C-183.07 217.653 -183.07 217.653 -188.219 223.844 C-196.506 231.435 -207.487 230.166 -218.062 230.221 C-220.631 230.25 -223.199 230.284 -225.768 230.323 C-227.358 230.346 -228.948 230.362 -230.539 230.37 C-235.953 230.424 -235.953 230.424 -237.062 231.533 C-237.162 234.377 -237.201 237.19 -237.188 240.033 C-237.191 240.831 -237.195 241.629 -237.199 242.451 C-237.189 248.407 -237.189 248.407 -236.062 249.533 C-233.762 249.628 -231.458 249.651 -229.156 249.647 C-228.795 249.647 -228.795 249.647 -226.968 249.647 C-224.571 249.647 -222.174 249.639 -219.777 249.631 C-218.12 249.629 -216.462 249.628 -214.804 249.627 C-210.433 249.623 -206.062 249.613 -201.69 249.602 C-197.233 249.592 -192.776 249.587 -188.318 249.582 C-179.566 249.572 -170.814 249.554 -162.062 249.533 C-161.963 248.97 -161.864 248.407 -161.762 247.826 C-161.296 245.229 -160.81 242.635 -160.324 240.041 C-160.169 239.155 -160.013 238.27 -159.852 237.357 C-157.033 222.56 -146.85 208.631 -134.535 200.037 C-118.716 190.416 -101.548 184.18 -82.793 188.412 C-68.853 191.997 -57.212 198.222 -47.062 208.533 C-46.415 209.182 -45.768 209.83 -45.102 210.498 C-34.785 221.513 -30.957 235.062 -28.062 249.533 C67.638 249.533 163.337 249.533 261.938 249.533 C262.598 245.243 263.257 240.953 263.938 236.533 C268.774 218.818 280.636 204.494 296.359 195.291 C313.275 186.981 331.814 184.892 349.754 190.924 C367.767 197.54 381.443 210.298 389.652 227.549 C392.875 235.033 394.025 241.318 394.938 249.533 C414.077 249.533 433.217 249.533 452.938 249.533 C452.607 248.873 452.278 248.213 451.938 247.533 C451.818 246.07 451.758 244.602 451.729 243.135 C451.709 242.223 451.69 241.311 451.67 240.372 C451.612 236.18 451.563 231.988 451.532 227.796 C451.511 225.592 451.477 223.387 451.43 221.183 C451.363 217.996 451.335 214.811 451.316 211.623 C451.289 210.648 451.261 209.673 451.232 208.668 C451.253 201.481 453.137 196.908 457.938 191.533 C461.797 188.318 465.879 187.854 470.75 187.346 C471.443 187.264 472.136 187.182 472.85 187.098 C474.544 186.899 476.241 186.715 477.938 186.533 C478.03 179.205 478.101 171.877 478.145 164.549 C478.166 161.145 478.194 157.742 478.239 154.339 C478.291 150.422 478.31 146.505 478.328 142.588 C478.349 141.372 478.369 140.156 478.391 138.904 C478.392 132.49 478.359 128.36 473.938 123.533 C470.167 120.22 467.029 119.409 462.079 119.406 C461.072 119.403 460.064 119.4 459.026 119.397 C457.917 119.399 456.807 119.4 455.663 119.402 C454.487 119.4 453.31 119.398 452.098 119.396 C448.827 119.391 445.556 119.39 442.285 119.391 C438.759 119.392 435.234 119.386 431.708 119.381 C425.597 119.373 419.486 119.368 413.376 119.365 C403.721 119.359 394.067 119.342 384.413 119.323 C381.112 119.317 377.811 119.311 374.509 119.304 C374.097 119.304 374.097 119.304 372.009 119.3 C362.616 119.282 353.222 119.265 343.829 119.25 C342.97 119.249 342.111 119.248 341.227 119.246 C327.3 119.224 313.373 119.214 299.447 119.206 C285.157 119.198 270.868 119.175 256.579 119.138 C247.76 119.116 238.941 119.106 230.122 119.113 C224.082 119.116 218.042 119.105 212.003 119.082 C208.515 119.069 205.027 119.063 201.539 119.074 C197.763 119.083 193.988 119.068 190.212 119.046 C189.657 119.05 189.657 119.05 186.849 119.071 C186.345 119.066 186.345 119.066 183.796 119.038 C182.924 119.037 182.052 119.037 181.153 119.036 C178.938 118.533 178.938 118.533 177.157 116.741 C175.263 113.312 175.532 109.821 175.569 106.005 C175.567 105.575 175.567 105.575 175.557 103.402 C175.551 101.538 175.551 99.675 175.557 97.811 C175.566 94.86 175.556 91.91 175.541 88.959 C175.501 80.57 175.499 72.181 175.502 63.791 C175.502 58.658 175.483 53.525 175.452 48.391 C175.442 45.487 175.454 42.584 175.466 39.68 C175.457 37.894 175.447 36.107 175.436 34.321 C175.441 33.919 175.441 33.919 175.465 31.884 C175.399 26.645 174.36 23.716 170.938 19.533 C166.321 15.476 162.076 15.391 156.161 15.42 C155.371 15.42 154.58 15.42 153.766 15.419 C151.153 15.42 148.539 15.428 145.926 15.436 C144.114 15.438 142.302 15.439 140.491 15.44 C135.721 15.444 130.952 15.454 126.183 15.465 C121.317 15.475 116.45 15.48 111.584 15.485 C102.035 15.495 92.486 15.512 82.938 15.533 Z " fill="#F9F9F9" transform="translate(497.0625,438.466552734375)"/>
<path d="M0 0 C0.833 -0 1.666 -0 2.524 -0 C5.222 0 7.919 0.008 10.616 0.016 C12.281 0.017 13.946 0.018 15.611 0.019 C21.786 0.024 27.961 0.038 34.136 0.051 C47.934 0.072 61.732 0.092 75.948 0.114 C75.948 29.814 75.948 59.514 75.948 90.114 C24.138 90.114 -27.672 90.114 -81.052 90.114 C-80.191 86.67 -79.733 85.344 -77.786 82.637 C-77.315 81.975 -76.843 81.314 -76.358 80.632 C-75.844 79.925 -75.331 79.217 -74.802 78.489 C-74.269 77.744 -73.736 77 -73.187 76.233 C-71.481 73.855 -69.767 71.484 -68.052 69.114 C-66.939 67.571 -65.827 66.028 -64.716 64.485 C-62.526 61.448 -60.333 58.415 -58.137 55.383 C-55.427 51.637 -52.735 47.879 -50.052 44.114 C-18.522 -0.086 -18.522 -0.086 0 0 Z " fill="#010101" transform="translate(489.051513671875,453.886474609375)"/>
<path d="M0 0 C10.771 8.173 19.406 19.348 22.332 32.77 C24.178 50.301 21.602 65.343 10.445 79.379 C1.73 89.238 -9.416 97.006 -22.896 97.921 C-39.242 98.722 -51.801 96.763 -64.668 85.77 C-75.635 75.054 -82.578 62.127 -82.961 46.59 C-83.101 30.18 -78.337 17.827 -67.23 5.582 C-48.623 -12.284 -21.318 -13.965 0 0 Z " fill="#030303" transform="translate(855.66796875,649.23046875)"/>
<path d="M0 0 C1.45 1.131 2.889 2.274 4.312 3.438 C5.199 4.036 6.086 4.634 7 5.25 C10.774 8.82 13.487 13.101 16.312 17.438 C16.719 18.05 17.125 18.662 17.543 19.293 C24.726 30.879 24.947 45.069 22.656 58.199 C18.748 72.163 10.344 84.965 -2.387 92.312 C-9.408 95.746 -16.814 98.992 -24.688 99.438 C-25.42 99.488 -26.152 99.538 -26.906 99.59 C-40.851 100.141 -53.847 94.834 -64.438 85.938 C-75.074 75.7 -81.652 61.408 -82.188 46.625 C-81.611 29.396 -75.326 15.28 -62.688 3.438 C-44.439 -10.702 -19.422 -13.411 0 0 Z " fill="#030303" transform="translate(430.6875,648.5625)"/>
<path d="M0 0 C5.866 4.888 9.534 9.235 10.27 17 C10.47 24.382 9.576 29.708 4.418 35.203 C2.693 36.764 0.927 38.138 -0.969 39.484 C-1.402 39.794 -1.402 39.794 -3.594 41.359 C-9.757 43.414 -16.377 43.635 -22.602 41.641 C-29.249 38.305 -33.233 33.192 -36.344 26.547 C-37.933 18.76 -37.367 12.267 -32.969 5.484 C-25.101 -3.654 -10.285 -7.918 0 0 Z " fill="#F9F9F9" transform="translate(838.96875,674.515625)"/>
<path d="M0 0 C5.399 3.768 9.819 8.814 11.004 15.398 C11.584 21.755 11.464 27.858 8.004 33.398 C3.343 38.522 -1.916 42.917 -8.941 43.746 C-16.461 44.086 -22.128 43.308 -27.996 38.398 C-33.08 33.062 -35.712 27.925 -36.309 20.523 C-36.054 12.665 -32.658 6.71 -26.996 1.398 C-19.339 -4.696 -8.568 -4.45 0 0 Z " fill="#F9F9F9" transform="translate(413.99609375,673.6015625)"/>
<path d="M0 0 C1.15 -0.004 2.3 -0.008 3.484 -0.012 C4.686 -0 5.887 0.011 7.125 0.023 C8.326 0.012 9.528 0 10.766 -0.012 C11.341 -0.01 11.341 -0.01 14.25 0 C14.777 0.002 14.777 0.002 17.445 0.01 C20.125 0.398 20.125 0.398 21.963 1.41 C23.836 4.616 23.593 7.996 23.594 11.609 C23.598 12.012 23.598 12.012 23.617 14.049 C23.628 15.752 23.63 17.455 23.626 19.158 C23.625 21.758 23.667 24.354 23.711 26.953 C23.716 28.609 23.719 30.266 23.719 31.922 C23.727 32.309 23.727 32.309 23.768 34.268 C23.718 38.19 23.275 40.193 20.94 43.389 C17.785 45.641 16.32 46.03 12.492 46.027 C11.439 46.029 10.386 46.031 9.301 46.033 C8.212 46.009 7.122 45.986 6 45.961 C5.452 45.966 5.452 45.966 2.676 45.994 C-5.243 45.921 -5.243 45.921 -7.686 43.9 C-9.415 40.263 -9.303 36.746 -9.273 32.801 C-9.276 31.97 -9.279 31.139 -9.282 30.284 C-9.284 28.531 -9.279 26.779 -9.266 25.026 C-9.25 22.342 -9.266 19.659 -9.285 16.975 C-9.283 15.271 -9.279 13.567 -9.273 11.863 C-9.28 11.06 -9.286 10.257 -9.292 9.429 C-9.223 4.001 -9.223 4.001 -7.717 1.394 C-5.084 -0.029 -2.986 0.01 0 0 Z " fill="#060606" transform="translate(971.875,639.6015625)"/>
<path d="M0 0 C3.424 -0.041 6.848 -0.082 10.375 -0.125 C10.914 -0.134 10.914 -0.134 13.642 -0.18 C14.49 -0.185 15.338 -0.19 16.211 -0.195 C16.646 -0.201 16.646 -0.201 18.845 -0.227 C21 0 21 0 23 2 C23.458 6.149 23.324 10.329 23.312 14.5 C23.329 15.667 23.345 16.833 23.361 18.035 C23.362 19.148 23.363 20.26 23.363 21.406 C23.366 22.43 23.369 23.455 23.372 24.51 C23.249 25.332 23.127 26.153 23 27 C19.796 29.136 19.004 29.242 15.332 29.195 C14.527 29.19 13.723 29.185 12.894 29.18 C12.385 29.171 12.385 29.171 9.812 29.125 C8.193 29.104 8.193 29.104 0 29 C0 19.43 0 9.86 0 0 Z " fill="#060606" transform="translate(276,625)"/>
<path d="M0 0 C2.027 0.633 2.027 0.633 4.09 2.195 C5.447 5.725 5.739 8.907 5.027 12.633 C2.455 15.976 0.379 17.423 -3.785 18.07 C-6.973 17.633 -6.973 17.633 -9.848 15.07 C-11.687 12.538 -12.03 11.304 -12.598 8.07 C-11.973 4.633 -11.973 4.633 -10.035 1.633 C-6.277 -0.822 -4.316 -0.79 0 0 Z " fill="#0A0A0A" transform="translate(828.97265625,685.3671875)"/>
<path d="M0 0 C3.33 0.555 5.301 1.495 8 3.5 C9.596 6.692 9.515 10.035 9 13.5 C7.13 15.931 5.719 17.141 3 18.5 C0.125 18.812 0.125 18.812 -3 18.5 C-6.521 15.646 -7.864 13.699 -8.375 9.188 C-8 5.5 -8 5.5 -5.875 2.562 C-3 0.5 -3 0.5 0 0 Z " fill="#0A0A0A" transform="translate(401,684.5)"/>
<path d="M0 0 C0 0.99 0 1.98 0 3 C-0.66 3 -1.32 3 -2 3 C-2.245 3.572 -2.49 4.145 -2.742 4.734 C-4.211 7.38 -5.953 9.149 -8.125 11.25 C-8.849 11.956 -9.574 12.663 -10.32 13.391 C-10.875 13.922 -11.429 14.453 -12 15 C-12.33 14.01 -12.66 13.02 -13 12 C-11.399 10.372 -9.794 8.748 -8.188 7.125 C-7.294 6.22 -6.401 5.315 -5.48 4.383 C-3 2 -3 2 0 0 Z " fill="#EDEDED" transform="translate(787,637)"/>
<path d="M0 0 C0 3 0 3 -2.188 5.48 C-3.116 6.374 -4.044 7.267 -5 8.188 C-5.928 9.089 -6.856 9.99 -7.812 10.918 C-8.534 11.605 -9.256 12.292 -10 13 C-10.66 12.67 -11.32 12.34 -12 12 C-8.277 7.579 -4.705 3.422 0 0 Z " fill="#E4E4E4" transform="translate(461,447)"/>
<path d="M0 0 C0.99 0.33 1.98 0.66 3 1 C-0.3 4.3 -3.6 7.6 -7 11 C-7.66 10.67 -8.32 10.34 -9 10 C-7.876 8.708 -6.751 7.416 -5.625 6.125 C-4.999 5.406 -4.372 4.686 -3.727 3.945 C-2.526 2.592 -1.279 1.279 0 0 Z " fill="#E7E7E7" transform="translate(357,642)"/>
<path d="M0 0 C0.66 0.33 1.32 0.66 2 1 C-0.97 3.97 -3.94 6.94 -7 10 C-7.66 9.67 -8.32 9.34 -9 9 C-8.067 7.871 -7.129 6.747 -6.188 5.625 C-5.665 4.999 -5.143 4.372 -4.605 3.727 C-3 2 -3 2 0 0 Z " fill="#E2E2E2" transform="translate(390,673)"/>
<path d="M0 0 C0 3 0 3 -1.875 5.188 C-4 7 -4 7 -6 7 C-4.607 3.633 -3.021 2.014 0 0 Z " fill="#E8E8E8" transform="translate(254,656)"/>
</svg>
