<?xml version="1.0" encoding="UTF-8"?>
<!-- Generator: visioncortex VTracer 0.6.12 -->
<svg version="1.1" xmlns="http://www.w3.org/2000/svg" width="1254" height="1254">
<path d="M0 0 C413.82 0 827.64 0 1254 0 C1254 413.82 1254 827.64 1254 1254 C840.18 1254 426.36 1254 0 1254 C0 840.18 0 426.36 0 0 Z " fill="#000000" transform="translate(0,0)"/>
<path d="M0 0 C1.345 -0.005 2.69 -0.011 4.035 -0.018 C7.716 -0.034 11.398 -0.038 15.079 -0.039 C19.055 -0.043 23.032 -0.058 27.008 -0.071 C35.696 -0.099 44.384 -0.111 53.073 -0.119 C58.503 -0.125 63.933 -0.134 69.363 -0.143 C84.412 -0.167 99.462 -0.187 114.511 -0.194 C114.992 -0.194 114.992 -0.194 117.427 -0.196 C117.91 -0.196 117.91 -0.196 120.35 -0.197 C122.305 -0.198 124.259 -0.199 126.214 -0.2 C126.698 -0.2 126.698 -0.2 129.152 -0.201 C144.851 -0.209 160.551 -0.244 176.251 -0.29 C192.389 -0.338 208.527 -0.363 224.665 -0.365 C233.718 -0.367 242.771 -0.378 251.824 -0.415 C259.535 -0.446 267.245 -0.456 274.956 -0.439 C278.885 -0.431 282.813 -0.433 286.743 -0.461 C309.812 -0.617 325.848 1.293 343.475 17.593 C351.633 26.296 355.423 36.254 359.077 47.356 C360.973 52.99 363.329 58.436 365.787 63.843 C367.415 67.452 368.679 71.084 369.885 74.851 C370.84 77.614 371.955 80.279 373.1 82.968 C375.001 87.44 376.692 91.941 378.287 96.531 C381.544 105.64 383.474 110.591 391.404 116.297 C397.349 121.381 402.246 129.638 402.915 137.523 C402.999 140.262 403.018 142.994 403.015 145.733 C403.019 146.253 403.019 146.253 403.036 148.884 C403.055 152.315 403.059 155.745 403.061 159.175 C403.067 161.567 403.074 163.958 403.081 166.349 C403.093 171.36 403.097 176.371 403.095 181.382 C403.095 187.791 403.122 194.199 403.157 200.608 C403.179 205.547 403.183 210.486 403.182 215.425 C403.184 217.787 403.193 220.149 403.209 222.512 C403.228 225.821 403.223 229.13 403.211 232.44 C403.222 233.408 403.233 234.376 403.245 235.374 C403.157 244.88 399.61 253.1 393.045 260.062 C383.012 269.571 372.262 269.843 359.123 269.672 C357.434 269.664 355.744 269.658 354.054 269.654 C349.638 269.639 345.223 269.6 340.807 269.556 C336.289 269.514 331.771 269.496 327.252 269.476 C318.409 269.433 309.567 269.365 300.725 269.281 C300.664 269.894 300.603 270.507 300.54 271.139 C300.456 271.946 300.373 272.753 300.286 273.584 C300.205 274.383 300.123 275.181 300.039 276.004 C298.213 289.226 288.713 302.012 278.725 310.281 C271.029 315.816 263.061 320.289 253.725 322.281 C253.116 322.45 252.507 322.619 251.88 322.793 C236.707 326.226 220.559 322.696 207.35 315.035 C191.989 304.771 182.462 290.267 178.725 272.281 C178.725 271.291 178.725 270.301 178.725 269.281 C94.245 269.281 9.765 269.281 -77.275 269.281 C-77.605 271.921 -77.935 274.561 -78.275 277.281 C-83.013 293.341 -92.966 306.649 -107.107 315.558 C-117.505 321.212 -126.749 323.472 -138.4 323.531 C-138.898 323.541 -138.898 323.541 -141.416 323.593 C-156.188 323.671 -169.355 317.851 -179.967 307.613 C-180.729 306.843 -181.49 306.074 -182.275 305.281 C-182.986 304.604 -183.696 303.927 -184.428 303.23 C-192.043 295.468 -196.672 285.714 -198.366 275.022 C-198.452 274.484 -198.452 274.484 -198.889 271.76 C-199.016 270.942 -199.144 270.124 -199.275 269.281 C-200.17 269.292 -201.064 269.303 -201.986 269.315 C-210.445 269.415 -218.904 269.491 -227.363 269.54 C-231.711 269.566 -236.059 269.601 -240.407 269.658 C-244.609 269.713 -248.81 269.742 -253.012 269.755 C-254.61 269.764 -256.207 269.782 -257.804 269.81 C-266.686 269.954 -273.904 269.892 -281.275 264.281 C-282.162 263.703 -283.049 263.126 -283.963 262.531 C-291.43 255.266 -295.379 246.685 -295.648 236.321 C-295.672 233.562 -295.658 230.805 -295.639 228.047 C-295.638 226.562 -295.639 225.078 -295.64 223.593 C-295.64 220.49 -295.63 217.387 -295.611 214.284 C-295.589 210.339 -295.588 206.395 -295.595 202.45 C-295.598 199.386 -295.592 196.321 -295.582 193.256 C-295.578 191.804 -295.577 190.351 -295.578 188.898 C-295.583 165.927 -289.711 145.869 -273.303 129.109 C-268.459 124.426 -263.016 120.786 -257.275 117.281 C-256.455 116.778 -255.636 116.275 -254.791 115.757 C-245.363 110.537 -234.511 108.268 -223.83 107.734 C-223.085 107.697 -222.341 107.66 -221.573 107.621 C-206.19 106.903 -190.784 106.583 -175.39 106.156 C-171.712 106.054 -168.035 105.948 -164.357 105.841 C-162.317 105.783 -160.276 105.728 -158.236 105.673 C-152.348 105.502 -146.467 105.283 -140.589 104.89 C-139.657 104.828 -138.725 104.766 -137.764 104.702 C-129.421 103.291 -123.472 94.365 -118.103 88.398 C-115.956 86.014 -113.758 83.712 -111.463 81.468 C-109.236 79.284 -107.172 77.032 -105.15 74.656 C-101.87 70.841 -98.35 67.315 -94.775 63.781 C-87.988 57.07 -87.988 57.07 -84.9 53.406 C-80.814 48.58 -76.245 44.224 -71.753 39.781 C-68.552 36.602 -65.428 33.427 -62.525 29.968 C-46.457 11.167 -24.66 -0.034 0 0 Z " fill="#FAFAFA" transform="translate(574.2752838134766,445.7191162109375)"/>
<path d="M0 0 C2.266 -0.003 4.532 -0.007 6.798 -0.011 C12.979 -0.021 19.159 -0.025 25.34 -0.028 C31.335 -0.031 37.33 -0.039 43.325 -0.047 C59.356 -0.068 75.386 -0.078 91.417 -0.087 C99.004 -0.091 106.59 -0.097 114.177 -0.102 C140.167 -0.12 166.157 -0.135 192.147 -0.142 C193.775 -0.143 195.403 -0.143 197.03 -0.144 C197.434 -0.144 197.434 -0.144 199.477 -0.144 C203.566 -0.146 207.656 -0.147 211.745 -0.148 C212.151 -0.148 212.151 -0.148 214.204 -0.149 C240.559 -0.157 266.913 -0.18 293.267 -0.213 C321.159 -0.247 349.05 -0.267 376.941 -0.27 C380.001 -0.27 383.061 -0.271 386.121 -0.271 C386.875 -0.271 387.628 -0.272 388.404 -0.272 C400.529 -0.274 412.653 -0.29 424.777 -0.31 C436.952 -0.33 449.126 -0.336 461.301 -0.326 C467.897 -0.322 474.492 -0.324 481.087 -0.343 C487.122 -0.361 493.156 -0.36 499.191 -0.344 C501.376 -0.342 503.562 -0.346 505.747 -0.358 C508.714 -0.373 511.679 -0.364 514.646 -0.348 C515.498 -0.358 516.349 -0.368 517.226 -0.379 C523.867 -0.302 529.118 1.502 534.146 5.928 C534.369 6.212 534.369 6.212 535.498 7.647 C535.96 8.214 536.421 8.782 536.896 9.366 C539.417 13.026 540.373 15.653 540.318 20.132 C540.312 21.066 540.305 22.001 540.299 22.964 C540.282 23.932 540.265 24.9 540.248 25.897 C540.239 26.881 540.23 27.864 540.221 28.878 C540.197 31.301 540.164 33.724 540.123 36.147 C539.337 36.162 538.55 36.176 537.74 36.191 C534.159 36.266 530.579 36.363 526.998 36.46 C526.379 36.471 526.379 36.471 523.248 36.528 C522.049 36.563 520.85 36.599 519.615 36.635 C519.065 36.649 519.065 36.649 516.283 36.715 C511.011 37.436 506.383 39.771 503.079 44.047 C500.838 48.972 501.335 54.712 501.311 60.022 C501.285 61.283 501.26 62.544 501.234 63.842 C501.176 66.944 501.139 70.045 501.123 73.147 C501.783 73.147 502.443 73.147 503.123 73.147 C503.577 73.91 504.031 74.673 504.498 75.46 C506.229 78.323 507.259 79.472 510.123 81.147 C513.331 81.58 513.331 81.58 517.076 81.659 C517.736 81.677 518.397 81.695 519.077 81.713 C521.175 81.767 523.274 81.801 525.373 81.835 C526.8 81.868 528.227 81.902 529.654 81.938 C533.144 82.023 536.633 82.09 540.123 82.147 C540.247 87.431 540.338 92.713 540.398 97.998 C540.423 99.793 540.457 101.589 540.5 103.384 C540.561 105.973 540.589 108.561 540.611 111.151 C540.637 111.946 540.663 112.741 540.689 113.56 C540.692 118.484 539.776 121.551 536.883 125.542 C531.718 130.253 527.465 131.649 520.535 131.601 C519.813 131.602 519.09 131.602 518.345 131.603 C515.98 131.6 513.617 131.569 511.252 131.538 C509.603 131.53 507.954 131.525 506.305 131.521 C501.982 131.505 497.661 131.466 493.339 131.422 C488.921 131.381 484.504 131.363 480.086 131.342 C471.431 131.3 462.777 131.232 454.123 131.147 C453.862 130.127 453.601 129.108 453.332 128.057 C452.978 126.7 452.625 125.344 452.271 123.987 C452.101 123.317 451.93 122.647 451.754 121.957 C447.898 107.25 438.525 94.537 425.623 86.46 C410.471 78.222 394.491 75.61 377.439 78.846 C374.518 79.747 371.874 80.819 369.123 82.147 C368.219 82.548 367.316 82.949 366.385 83.362 C351.357 90.695 340.081 103.915 334.623 119.647 C333.448 123.521 332.797 127.105 332.123 131.147 C247.643 131.147 163.163 131.147 76.123 131.147 C75.463 128.672 75.463 128.672 72.123 116.147 C65.259 100.602 53.885 88.74 38.123 82.147 C24.451 77.015 7.544 75.269 -6.252 80.893 C-7.118 81.307 -7.984 81.721 -8.877 82.147 C-9.805 82.571 -10.733 82.995 -11.689 83.432 C-26.704 90.919 -37.138 103.529 -42.877 119.147 C-43.424 121.219 -43.951 123.297 -44.462 125.378 C-44.728 126.459 -44.994 127.539 -45.269 128.652 C-45.469 129.476 -45.67 130.299 -45.877 131.147 C-54.344 131.217 -62.811 131.27 -71.278 131.303 C-75.211 131.318 -79.143 131.339 -83.075 131.373 C-86.875 131.406 -90.674 131.424 -94.474 131.432 C-95.919 131.437 -97.364 131.448 -98.808 131.464 C-115.588 131.646 -115.588 131.646 -122.252 126.21 C-125.55 122.024 -126.125 119.071 -126.104 113.726 C-126.104 112.425 -126.104 111.124 -126.104 109.784 C-126.093 108.368 -126.083 106.953 -126.072 105.538 C-126.069 104.086 -126.066 102.635 -126.064 101.183 C-126.056 97.369 -126.036 93.555 -126.014 89.741 C-125.994 85.846 -125.985 81.952 -125.975 78.057 C-125.953 70.421 -125.919 62.784 -125.877 55.147 C-125.021 55.139 -124.166 55.131 -123.284 55.123 C-115.221 55.045 -107.158 54.957 -99.095 54.86 C-94.949 54.81 -90.804 54.763 -86.659 54.725 C-82.658 54.688 -78.658 54.642 -74.657 54.589 C-73.131 54.571 -71.605 54.555 -70.078 54.544 C-67.94 54.527 -65.803 54.498 -63.665 54.466 C-62.448 54.453 -61.231 54.439 -59.978 54.426 C-57.019 54.16 -55.319 53.794 -52.877 52.147 C-51.352 49.097 -51.641 46.505 -51.877 43.147 C-52.993 41.452 -52.993 41.452 -54.877 40.147 C-57.743 39.748 -57.743 39.748 -61.276 39.715 C-61.92 39.705 -62.565 39.694 -63.228 39.684 C-65.355 39.654 -67.481 39.645 -69.607 39.635 C-71.083 39.619 -72.558 39.6 -74.034 39.581 C-77.915 39.534 -81.796 39.504 -85.678 39.478 C-89.64 39.448 -93.601 39.401 -97.563 39.356 C-105.334 39.27 -113.105 39.203 -120.877 39.147 C-118.842 27.76 -109.942 18.574 -100.869 11.952 C-87.668 3.332 -75.119 1.546 -59.689 1.46 C-57.323 1.43 -54.956 1.395 -52.59 1.357 C-51.134 1.336 -49.679 1.319 -48.224 1.31 C-43.865 1.266 -39.533 1.069 -35.183 0.786 C-23.454 0.047 -11.749 -0.002 0 0 Z " fill="#000000" transform="translate(420.8769836425781,567.8528289794922)"/>
<path d="M0 0 C41.396 -0.161 41.396 -0.161 58.777 -0.195 C70.767 -0.219 82.756 -0.247 94.745 -0.302 C103.477 -0.342 112.21 -0.367 120.942 -0.376 C125.563 -0.382 130.183 -0.394 134.804 -0.423 C139.16 -0.45 143.517 -0.458 147.874 -0.452 C149.465 -0.454 151.057 -0.461 152.648 -0.477 C165.482 -0.595 177.276 0.822 187 10 C193.709 16.867 197.906 23.187 200.938 32.25 C202.762 37.575 204.686 42.733 207.07 47.836 C208.636 51.479 209.781 55.262 211.004 59.031 C212.178 62.532 213.528 65.934 214.922 69.352 C216.202 72.496 217.451 75.651 218.688 78.812 C219.104 79.871 219.52 80.929 219.949 82.02 C221 85 221 85 222 90 C148.74 90 75.48 90 0 90 C0 60.3 0 30.6 0 0 Z " fill="#020202" transform="translate(716,462)"/>
<path d="M0 0 C1.153 -0.001 2.305 -0.003 3.493 -0.004 C4.743 -0.001 5.993 0.003 7.281 0.007 C8.622 0.007 9.962 0.007 11.303 0.006 C14.931 0.006 18.558 0.012 22.186 0.019 C25.982 0.025 29.777 0.026 33.573 0.027 C40.755 0.03 47.937 0.038 55.12 0.048 C63.298 0.059 71.477 0.065 79.656 0.07 C96.476 0.08 113.296 0.098 130.115 0.12 C130.139 11.707 130.156 23.294 130.167 34.881 C130.172 40.261 130.18 45.64 130.191 51.02 C130.202 56.207 130.208 61.394 130.21 66.581 C130.212 68.565 130.216 70.548 130.221 72.532 C130.228 75.3 130.229 78.069 130.229 80.837 C130.233 81.665 130.236 82.494 130.24 83.348 C130.229 89.006 130.229 89.006 129.115 90.12 C126.069 90.218 123.045 90.25 119.998 90.241 C119.029 90.241 118.06 90.242 117.062 90.243 C113.79 90.245 110.518 90.239 107.246 90.234 C104.911 90.233 102.576 90.234 100.241 90.234 C93.879 90.235 87.518 90.229 81.157 90.222 C75.189 90.216 69.221 90.215 63.253 90.214 C51.43 90.212 39.606 90.205 27.783 90.196 C16.294 90.187 4.806 90.179 -6.682 90.175 C-7.39 90.175 -8.098 90.175 -8.827 90.174 C-12.377 90.173 -15.927 90.172 -19.476 90.171 C-48.946 90.16 -78.415 90.143 -107.885 90.12 C-106.46 87.142 -105.106 85.141 -102.697 82.87 C-100.169 80.42 -97.797 77.922 -95.51 75.245 C-92.918 72.236 -90.212 69.409 -87.385 66.62 C-84.722 63.993 -82.172 61.353 -79.76 58.495 C-75.61 53.644 -71.033 49.217 -66.478 44.751 C-62.693 41.017 -59.139 37.166 -55.666 33.142 C-41.09 16.6 -23.417 -0.022 0 0 Z " fill="#020202" transform="translate(570.8846130371094,461.87974548339844)"/>
<path d="M0 0 C7.955 6.561 15.336 17.249 16.984 27.637 C18.028 42.672 15.515 55.485 5.984 67.637 C-0.97 75.616 -10.713 80.404 -21.016 82.637 C-37.031 83.605 -48.567 81.576 -61.016 70.637 C-65.796 65.554 -69.232 60.004 -72.016 53.637 C-72.593 52.502 -73.171 51.368 -73.766 50.199 C-77.131 40.861 -76.139 27.576 -72.016 18.637 C-65.299 5.725 -55.96 -3.551 -42.016 -8.363 C-27.15 -12.163 -12.339 -8.939 0 0 Z " fill="#010101" transform="translate(843.015625,670.36328125)"/>
<path d="M0 0 C2.013 1.426 3.842 2.931 5.676 4.578 C6.279 5.101 6.882 5.625 7.504 6.164 C15.772 13.821 20.912 23.644 21.992 34.863 C22.501 49.694 17.572 62.456 7.551 73.328 C-3.048 83.461 -15.512 86.191 -29.613 85.887 C-41.322 85.328 -51.113 79.289 -59.074 70.891 C-68.671 59.229 -71.242 46.279 -70.324 31.578 C-68.516 20.26 -61.271 8.639 -52.008 1.891 C-49.499 0.32 -46.956 -1.07 -44.324 -2.422 C-43.6 -2.837 -42.875 -3.252 -42.129 -3.68 C-29.017 -10.213 -12.03 -7.36 0 0 Z " fill="#020202" transform="translate(460.32421875,667.421875)"/>
<path d="M0 0 C0.916 0.005 1.833 0.01 2.777 0.016 C3.766 0.019 4.756 0.022 5.775 0.026 C6.816 0.034 7.857 0.042 8.929 0.051 C9.452 0.053 9.452 0.053 12.095 0.065 C14.686 0.077 17.276 0.094 19.867 0.114 C19.867 5.064 19.867 10.014 19.867 15.114 C12.277 15.114 4.687 15.114 -3.133 15.114 C-3.231 4.274 -3.231 4.274 -3.133 1.114 C-2.133 0.114 -2.133 0.114 0 0 Z " fill="#0B0B0B" transform="translate(941.133056640625,619.886474609375)"/>
<path d="M0 0 C0.66 0.33 1.32 0.66 2 1 C-1.96 4.96 -5.92 8.92 -10 13 C-10 8.832 -7.761 6.858 -5 4 C-3.369 2.623 -1.713 1.273 0 0 Z " fill="#1F1F1F" transform="translate(787,669)"/>
</svg>
