<?xml version="1.0" encoding="UTF-8"?>
<!-- Generator: visioncortex VTracer 0.6.12 -->
<svg version="1.1" xmlns="http://www.w3.org/2000/svg" width="1254" height="1254">
<path d="M0 0 C413.82 0 827.64 0 1254 0 C1254 413.82 1254 827.64 1254 1254 C840.18 1254 426.36 1254 0 1254 C0 840.18 0 426.36 0 0 Z " fill="#000000" transform="translate(0,0)"/>
<path d="M0 0 C1.01 -0.004 2.02 -0.007 3.06 -0.011 C6.449 -0.022 9.837 -0.026 13.226 -0.03 C15.653 -0.036 18.081 -0.043 20.509 -0.05 C27.797 -0.069 35.084 -0.08 42.372 -0.088 C45.807 -0.093 49.242 -0.098 52.677 -0.103 C64.101 -0.12 75.525 -0.135 86.949 -0.142 C89.911 -0.144 92.874 -0.146 95.836 -0.148 C96.572 -0.148 97.308 -0.149 98.067 -0.149 C109.991 -0.158 121.914 -0.183 133.838 -0.216 C146.09 -0.249 158.341 -0.267 170.593 -0.27 C177.468 -0.272 184.343 -0.281 191.218 -0.306 C197.687 -0.33 204.155 -0.334 210.624 -0.324 C212.995 -0.323 215.366 -0.329 217.737 -0.343 C220.981 -0.361 224.223 -0.354 227.467 -0.341 C227.933 -0.346 227.933 -0.346 230.293 -0.374 C236.949 -0.309 242.047 1.356 248.051 4.147 C248.899 4.515 249.748 4.882 250.622 5.261 C256.863 8 261.746 11.987 266.863 16.417 C270.091 19.21 273.43 21.842 276.801 24.46 C281.959 28.479 287.051 32.571 292.113 36.71 C297.899 41.436 303.766 46.024 309.707 50.553 C313.55 53.509 317.298 56.578 321.051 59.647 C326.909 64.436 332.839 69.105 338.852 73.698 C348.163 80.811 357.316 88.12 366.371 95.557 C367.634 96.59 368.903 97.616 370.179 98.634 C371.39 99.613 372.581 100.62 373.743 101.656 C383.86 110.176 398.177 112.984 410.865 115.407 C413.204 115.854 415.538 116.318 417.873 116.786 C422.825 117.775 427.782 118.744 432.738 119.71 C438.505 120.835 444.27 121.971 450.031 123.124 C452.305 123.575 454.582 124.012 456.859 124.448 C474.55 127.921 490.644 134.332 501.668 149.35 C508.781 160.321 510.663 171.639 510.547 184.514 C510.549 185.833 510.55 187.152 510.551 188.511 C510.553 191.276 510.541 194.041 510.518 196.805 C510.489 200.332 510.492 203.859 510.505 207.386 C510.513 210.783 510.498 214.18 510.485 217.577 C510.488 218.834 510.49 220.092 510.493 221.387 C510.399 230.126 509.295 236.864 503.069 243.391 C493.694 251.549 481.77 250.814 470.16 250.635 C468.361 250.626 466.563 250.619 464.764 250.614 C460.068 250.595 455.374 250.546 450.678 250.49 C445.872 250.439 441.065 250.416 436.258 250.391 C426.855 250.338 417.453 250.253 408.051 250.147 C407.906 251.403 407.761 252.66 407.612 253.954 C406.081 267.239 396.958 280.635 386.77 289.026 C374.578 297.958 361.331 302.738 346.238 302.585 C345.181 302.576 344.124 302.568 343.034 302.56 C335.047 302.387 328.365 301.565 321.051 298.147 C320.553 297.916 320.553 297.916 318.031 296.745 C302.162 288.413 292.163 274.701 286.68 257.839 C286.051 255.147 286.051 255.147 286.051 250.147 C183.421 250.147 80.791 250.147 -24.949 250.147 C-25.609 253.447 -26.269 256.747 -26.949 260.147 C-31.178 274.579 -41.781 286.989 -54.699 294.46 C-57.085 295.758 -59.501 296.971 -61.949 298.147 C-63.051 298.677 -64.153 299.207 -65.289 299.753 C-78.203 305.132 -93.852 305.114 -106.949 300.147 C-116.319 296.276 -123.847 291.441 -130.949 284.147 C-131.572 283.557 -132.194 282.966 -132.836 282.358 C-136.931 278.18 -139.608 273.434 -142.262 268.272 C-142.599 267.624 -142.937 266.977 -143.285 266.309 C-145.129 262.549 -146.278 259.007 -147.055 254.885 C-147.226 253.995 -147.396 253.104 -147.571 252.187 C-147.696 251.514 -147.821 250.841 -147.949 250.147 C-148.944 250.152 -149.939 250.156 -150.964 250.161 C-160.364 250.201 -169.765 250.231 -179.166 250.251 C-183.998 250.261 -188.831 250.275 -193.663 250.298 C-198.332 250.32 -203 250.332 -207.668 250.337 C-209.444 250.341 -211.221 250.348 -212.997 250.359 C-215.495 250.373 -217.993 250.375 -220.492 250.374 C-221.217 250.381 -221.942 250.389 -222.689 250.396 C-230.97 250.363 -238.882 249.185 -244.949 243.147 C-249.859 236.841 -252.067 232.276 -252.11 224.204 C-252.115 223.501 -252.12 222.798 -252.125 222.074 C-252.14 219.745 -252.147 217.417 -252.152 215.089 C-252.158 213.463 -252.164 211.836 -252.169 210.21 C-252.18 206.795 -252.186 203.379 -252.189 199.964 C-252.195 195.617 -252.219 191.27 -252.247 186.923 C-252.266 183.558 -252.271 180.194 -252.273 176.83 C-252.276 175.23 -252.284 173.629 -252.297 172.029 C-252.392 159.655 -251.362 148.297 -245.137 137.335 C-244.958 137.015 -244.958 137.015 -244.057 135.396 C-235.701 120.717 -221.394 110.792 -205.328 106.039 C-196.172 103.536 -187.191 103.639 -177.765 103.757 C-175.971 103.764 -174.176 103.77 -172.382 103.774 C-167.711 103.789 -163.041 103.828 -158.371 103.873 C-153.584 103.914 -148.797 103.932 -144.01 103.952 C-134.656 103.994 -125.302 104.063 -115.949 104.147 C-115.65 103.524 -115.351 102.901 -115.042 102.259 C-113.851 99.958 -112.509 98.406 -110.719 96.538 C-110.08 95.865 -109.441 95.192 -108.783 94.499 C-108.449 94.152 -108.449 94.152 -106.762 92.397 C-102.288 87.715 -97.904 82.992 -93.662 78.098 C-90.873 74.921 -87.973 71.85 -85.074 68.772 C-81.159 64.598 -77.261 60.416 -73.449 56.147 C-69.075 51.251 -64.589 46.466 -60.101 41.675 C-56.848 38.196 -53.622 34.699 -50.449 31.147 C-46.616 26.877 -42.767 22.623 -38.887 18.397 C-38.321 17.771 -37.755 17.144 -37.172 16.499 C-32.027 10.927 -26.332 5.801 -19.262 2.835 C-18.556 2.529 -17.851 2.224 -17.125 1.909 C-11.45 -0.078 -5.944 -0.001 0 0 Z " fill="#FCFCFC" transform="translate(497.9490203857422,457.8528289794922)"/>
<path d="M0 0 C0.974 -0.005 1.947 -0.009 2.951 -0.014 C6.209 -0.026 9.467 -0.017 12.726 -0.007 C15.087 -0.012 17.448 -0.017 19.81 -0.024 C25.616 -0.037 31.422 -0.036 37.229 -0.029 C44.186 -0.021 51.143 -0.031 58.1 -0.041 C71.73 -0.061 85.36 -0.063 98.99 -0.058 C110.918 -0.054 122.845 -0.054 134.772 -0.06 C136.372 -0.061 137.972 -0.062 139.572 -0.062 C141.983 -0.063 144.394 -0.065 146.805 -0.066 C169.219 -0.077 191.632 -0.081 214.045 -0.073 C214.89 -0.073 215.735 -0.073 216.605 -0.072 C223.465 -0.07 230.326 -0.067 237.186 -0.065 C263.953 -0.055 290.721 -0.063 317.488 -0.086 C347.561 -0.112 377.635 -0.125 407.708 -0.118 C410.914 -0.117 414.119 -0.117 417.325 -0.116 C417.72 -0.116 417.72 -0.116 419.717 -0.115 C431.638 -0.113 443.558 -0.121 455.479 -0.134 C469.032 -0.149 482.585 -0.15 496.139 -0.132 C503.056 -0.123 509.973 -0.121 516.891 -0.137 C523.22 -0.151 529.549 -0.146 535.878 -0.127 C538.17 -0.123 540.463 -0.126 542.756 -0.136 C545.867 -0.149 548.978 -0.138 552.089 -0.12 C552.536 -0.125 552.536 -0.125 554.799 -0.149 C560.044 -0.088 563.708 0.795 568.277 3.409 C576.946 8.346 588.189 9.556 597.857 11.318 C600.6 11.83 603.342 12.349 606.083 12.869 C606.421 12.932 606.421 12.932 608.131 13.255 C615.123 14.581 622.073 16.075 629.018 17.628 C633.401 18.608 637.781 19.547 642.197 20.369 C657.32 23.216 669.301 27.686 678.482 40.755 C679.982 43.38 679.982 43.38 679.982 45.38 C679.034 45.39 678.087 45.399 677.111 45.409 C673.551 45.453 669.992 45.515 666.432 45.588 C664.9 45.616 663.368 45.637 661.835 45.651 C641.89 45.847 641.89 45.847 635.056 52.159 C628.369 59.47 628.392 66.193 628.599 75.708 C628.985 82.71 631.488 86.887 636.357 91.755 C642.689 95.675 647.642 96.833 654.978 96.892 C655.395 96.901 655.395 96.901 657.504 96.946 C660.142 97 662.78 97.034 665.419 97.068 C667.218 97.101 669.017 97.136 670.816 97.171 C675.204 97.256 679.593 97.323 683.982 97.38 C684.044 99.303 684.089 101.226 684.126 103.15 C684.153 104.221 684.18 105.292 684.208 106.395 C683.864 110.942 682.384 112.452 678.982 115.38 C675.389 116.578 672.127 116.512 668.389 116.494 C668.004 116.494 668.004 116.494 666.053 116.494 C663.504 116.494 660.956 116.486 658.408 116.478 C656.641 116.476 654.874 116.475 653.107 116.474 C648.456 116.47 643.805 116.46 639.154 116.449 C634.409 116.439 629.663 116.434 624.917 116.429 C615.605 116.418 606.294 116.401 596.982 116.38 C596.786 115.352 596.591 114.323 596.39 113.264 C596.126 111.9 595.861 110.537 595.596 109.173 C595.532 108.835 595.532 108.835 595.209 107.124 C594.196 101.944 592.702 97.547 590.169 92.943 C589.816 92.274 589.463 91.605 589.099 90.915 C586.477 86.052 583.749 81.453 579.982 77.38 C579.385 76.731 578.788 76.081 578.173 75.412 C566.466 63.904 550.11 58.221 533.919 58.005 C518.05 58.199 503.583 64.03 492.158 75.138 C491.799 75.508 491.799 75.508 489.982 77.38 C489.336 78.017 488.69 78.654 488.025 79.31 C478.23 89.595 474.509 102.633 472.982 116.38 C371.012 116.38 269.042 116.38 163.982 116.38 C163.322 113.41 163.322 113.41 159.982 98.38 C152.108 81.601 141.7 69.201 123.982 62.38 C114.27 59.275 105.24 57.57 94.982 58.38 C94.021 58.44 93.061 58.499 92.072 58.56 C77.955 60.118 63.775 68.593 54.552 79.165 C47.393 88.261 43.378 97.049 40.845 108.244 C40.755 108.636 40.755 108.636 40.297 110.621 C39.855 112.54 39.418 114.46 38.982 116.38 C28.377 116.473 17.772 116.544 7.166 116.588 C2.242 116.608 -2.682 116.637 -7.607 116.682 C-12.36 116.726 -17.112 116.749 -21.865 116.76 C-23.678 116.767 -25.491 116.782 -27.304 116.803 C-29.844 116.832 -32.383 116.836 -34.923 116.834 C-35.672 116.849 -36.421 116.863 -37.192 116.878 C-42.097 116.839 -44.567 115.856 -48.018 112.38 C-50.237 109.165 -50.235 106.479 -50.143 102.63 C-50.134 102.138 -50.134 102.138 -50.089 99.646 C-50.065 98.898 -50.042 98.151 -50.018 97.38 C-48.945 97.371 -47.871 97.362 -46.765 97.352 C-42.744 97.312 -38.724 97.246 -34.704 97.173 C-32.972 97.145 -31.238 97.123 -29.505 97.109 C-11.07 96.95 -11.07 96.95 -4.018 92.38 C-3.09 91.803 -2.162 91.225 -1.206 90.63 C4.368 84.898 5.65 78.662 5.544 70.88 C5.568 70.077 5.592 69.274 5.617 68.447 C5.601 62.25 3.825 58.212 -0.018 53.38 C-6.14 47.419 -12.577 45.937 -20.796 45.869 C-21.201 45.86 -21.201 45.86 -23.254 45.814 C-25.821 45.76 -28.388 45.726 -30.956 45.693 C-32.706 45.66 -34.457 45.625 -36.208 45.589 C-40.478 45.505 -44.748 45.438 -49.018 45.38 C-49.034 43.936 -49.046 42.492 -49.055 41.048 C-49.062 40.244 -49.069 39.439 -49.076 38.611 C-48.848 29.838 -42.536 21.723 -37.018 15.38 C-26.499 5.413 -14.514 -0.11 0 0 Z " fill="#010101" transform="translate(310.01821994781494,576.619683265686)"/>
<path d="M0 0 C0.92 0.006 1.839 0.013 2.786 0.02 C16.546 0.387 26.111 5.936 35.746 15.477 C45.758 26.285 49.718 38.874 49.164 53.5 C48.272 65.188 41.386 77.86 32.859 85.84 C28.475 89.291 23.707 91.963 18.75 94.5 C18.397 94.682 18.397 94.682 16.609 95.605 C7.229 99.539 -6.675 98.952 -16.094 95.469 C-29.475 89.457 -39.392 80.605 -44.793 66.695 C-49.504 53.514 -49.78 41.598 -44.25 28.5 C-37.354 15.179 -27.075 5.701 -12.715 1.109 C-8.483 0.064 -4.342 -0.032 0 0 Z " fill="#020202" transform="translate(411.25,648.5)"/>
<path d="M0 0 C0.721 -0.012 1.442 -0.024 2.186 -0.037 C14.169 -0.069 25.986 4.687 34.742 12.949 C46.355 26.311 49.62 38.883 48.688 56.188 C47.599 68.158 40.199 78.143 31.688 86.188 C19.676 95.986 5.826 98.667 -9.312 97.188 C-22.625 94.072 -32.706 86.359 -40.312 75.188 C-41.915 72.595 -43.178 70.014 -44.312 67.188 C-44.61 66.522 -44.908 65.857 -45.215 65.172 C-49.124 54.868 -49.257 40.725 -45.188 30.5 C-44.282 28.702 -43.326 26.927 -42.312 25.188 C-42.089 24.785 -42.089 24.785 -40.961 22.746 C-34.31 11.767 -23.24 3.996 -10.91 0.508 C-7.273 0.059 -3.659 0.003 0 0 Z " fill="#010101" transform="translate(844.3125,648.8125)"/>
<path d="M0 0 C0.814 0.007 1.628 0.014 2.467 0.021 C5.056 0.049 7.642 0.112 10.23 0.176 C11.99 0.201 13.75 0.224 15.51 0.244 C19.814 0.295 24.114 0.393 28.418 0.488 C28.418 7.748 28.418 15.008 28.418 22.488 C23.382 22.58 18.348 22.66 13.312 22.708 C11.6 22.728 9.888 22.755 8.176 22.79 C5.711 22.839 3.247 22.861 0.781 22.879 C0.4 22.889 0.4 22.889 -1.527 22.941 C-5.267 22.943 -7.363 22.629 -10.542 20.589 C-13.594 17.446 -13.806 15.473 -13.957 11.176 C-14.006 10.231 -14.055 9.286 -14.105 8.312 C-12.647 0.444 -6.715 -0.221 0 0 Z " fill="#030303" transform="translate(965.58203125,636.51171875)"/>
<path d="M0 0 C5.036 -0.069 10.07 -0.129 15.106 -0.165 C16.818 -0.18 18.53 -0.2 20.242 -0.226 C22.707 -0.263 25.171 -0.28 27.637 -0.293 C28.018 -0.301 28.018 -0.301 29.945 -0.34 C34.482 -0.341 37.404 0.167 41 3 C42.968 6.935 42.464 11.711 42 16 C40.199 19.002 39.097 20.452 36 22 C33.301 22.087 30.628 22.116 27.93 22.098 C27.532 22.097 27.532 22.097 25.517 22.093 C22.97 22.088 20.422 22.075 17.875 22.062 C16.15 22.057 14.424 22.053 12.699 22.049 C8.466 22.039 4.233 22.019 0 22 C0 14.74 0 7.48 0 0 Z " fill="#050505" transform="translate(260,637)"/>
<path d="M0 0 C0 3 0 3 -2.555 5.918 C-3.654 7.016 -4.761 8.105 -5.875 9.188 C-6.431 9.746 -6.986 10.305 -7.559 10.881 C-11.733 15 -11.733 15 -14 15 C-12.419 11.148 -9.946 8.711 -7 5.812 C-6.113 4.932 -5.226 4.052 -4.312 3.145 C-2 1 -2 1 0 0 Z " fill="#F0F0F0" transform="translate(809,645)"/>
<path d="M0 0 C0.66 0.33 1.32 0.66 2 1 C-2.29 5.29 -6.58 9.58 -11 14 C-11.66 13.67 -12.32 13.34 -13 13 C-4.738 3.405 -4.738 3.405 0 0 Z " fill="#E0E0E0" transform="translate(375,645)"/>
<path d="M0 0 C0.66 0.33 1.32 0.66 2 1 C-1.96 4.96 -5.92 8.92 -10 13 C-10.66 12.67 -11.32 12.34 -12 12 C-10.567 10.371 -9.128 8.747 -7.688 7.125 C-6.887 6.22 -6.086 5.315 -5.262 4.383 C-3 2 -3 2 0 0 Z " fill="#1E1E1E" transform="translate(817,657)"/>
<path d="M0 0 C0.99 0.33 1.98 0.66 3 1 C2.519 1.388 2.038 1.776 1.543 2.176 C-0.457 4.541 -0.489 6.127 -0.688 9.188 C-0.753 10.089 -0.819 10.99 -0.887 11.918 C-0.905 12.262 -0.905 12.262 -1 14 C-1.33 14 -1.66 14 -2 14 C-2.054 12.23 -2.093 10.459 -2.125 8.688 C-2.148 7.701 -2.171 6.715 -2.195 5.699 C-2 3 -2 3 0 0 Z " fill="#373737" transform="translate(954,639)"/>
</svg>
