<?xml version="1.0" encoding="UTF-8"?>
<!-- Generator: visioncortex VTracer 0.6.12 -->
<svg version="1.1" xmlns="http://www.w3.org/2000/svg" width="1254" height="1254">
<path d="M0 0 C413.82 0 827.64 0 1254 0 C1254 413.82 1254 827.64 1254 1254 C840.18 1254 426.36 1254 0 1254 C0 840.18 0 426.36 0 0 Z " fill="#000000" transform="translate(0,0)"/>
<path d="M0 0 C1.826 -0.004 3.652 -0.01 5.478 -0.016 C10.461 -0.031 15.443 -0.027 20.426 -0.019 C25.813 -0.014 31.201 -0.027 36.588 -0.037 C47.128 -0.054 57.667 -0.055 68.207 -0.05 C76.775 -0.046 85.342 -0.047 93.91 -0.053 C94.521 -0.053 94.521 -0.053 97.611 -0.055 C100.091 -0.057 102.572 -0.058 105.053 -0.06 C128.295 -0.073 151.538 -0.068 174.78 -0.056 C196.032 -0.046 217.285 -0.059 238.537 -0.083 C260.377 -0.108 282.217 -0.117 304.058 -0.111 C316.312 -0.107 328.566 -0.109 340.821 -0.127 C351.25 -0.142 361.679 -0.142 372.109 -0.125 C377.427 -0.116 382.745 -0.114 388.063 -0.13 C392.936 -0.143 397.81 -0.139 402.683 -0.119 C404.441 -0.116 406.198 -0.118 407.956 -0.129 C422.103 -0.207 434.089 1.46 445.624 10.388 C446.655 11.11 447.686 11.831 448.749 12.575 C455.72 18.614 460.742 28.414 461.898 37.555 C461.997 39.78 462.01 41.987 461.985 44.215 C461.987 45.055 461.99 45.896 461.992 46.762 C461.997 49.554 461.981 52.345 461.964 55.136 C461.964 57.147 461.964 59.158 461.966 61.169 C461.967 66.611 461.949 72.052 461.928 77.494 C461.909 83.187 461.908 88.881 461.904 94.574 C461.895 105.347 461.87 116.121 461.84 126.894 C461.806 139.162 461.79 151.431 461.775 163.699 C461.744 188.929 461.691 214.158 461.624 239.388 C462.26 239.46 462.26 239.46 465.477 239.826 C471.762 240.542 476.345 243.673 480.499 248.388 C484.833 254.506 485.459 260.036 484.624 267.388 C482.568 273.976 478.558 278.711 472.561 282.138 C467.742 284.189 463.82 284.529 458.56 284.593 C457.858 284.603 457.155 284.613 456.431 284.623 C454.115 284.655 451.799 284.679 449.483 284.704 C447.875 284.725 446.266 284.746 444.658 284.767 C440.429 284.822 436.201 284.872 431.973 284.92 C427.656 284.97 423.339 285.026 419.022 285.081 C410.556 285.189 402.09 285.29 393.624 285.388 C393.301 286.402 392.979 287.417 392.647 288.462 C392.208 289.815 391.77 291.168 391.331 292.52 C391.12 293.187 390.909 293.853 390.692 294.539 C385.789 309.549 374.747 321.532 360.893 328.825 C344.259 336.709 326.436 339.185 308.624 333.388 C294.129 327.761 280.453 316.824 273.772 302.571 C271.146 296.611 268.906 290.799 267.624 284.388 C155.754 284.718 43.884 285.048 -71.376 285.388 C-73.356 290.668 -75.336 295.948 -77.376 301.388 C-87.156 318.339 -101.372 329.792 -120.189 335.263 C-136.649 338.906 -154.239 336.206 -168.69 327.508 C-180.701 319.528 -192.735 306.204 -195.937 291.879 C-196.108 290.989 -196.279 290.099 -196.455 289.182 C-196.629 288.284 -196.803 287.385 -196.983 286.46 C-197.113 285.776 -197.242 285.092 -197.376 284.388 C-197.737 284.391 -197.737 284.391 -199.562 284.408 C-206.388 284.468 -213.214 284.514 -220.04 284.543 C-223.548 284.559 -227.057 284.58 -230.565 284.614 C-234.606 284.653 -238.647 284.667 -242.689 284.681 C-243.938 284.696 -245.187 284.712 -246.474 284.728 C-254.812 284.729 -260.54 283.896 -267.626 279.263 C-272.716 273.942 -274.596 268.664 -274.939 261.325 C-274.647 253.676 -271.489 249.213 -266.126 244.013 C-263.363 241.812 -261.099 240.901 -257.642 240.224 C-256.84 240.062 -256.039 239.9 -255.213 239.733 C-254.91 239.676 -254.91 239.676 -253.376 239.388 C-253.385 238.795 -253.394 238.201 -253.403 237.59 C-253.492 231.343 -253.552 225.097 -253.596 218.849 C-253.616 216.527 -253.643 214.204 -253.678 211.882 C-253.987 190.742 -252.522 174.172 -238.06 157.759 C-224.894 144.941 -207.057 141.482 -189.864 137.085 C-186.813 136.299 -183.771 135.485 -180.728 134.669 C-179.807 134.443 -178.886 134.216 -177.937 133.983 C-171.279 132.179 -167.199 129.259 -162.376 124.388 C-161.507 123.561 -160.638 122.735 -159.743 121.884 C-158.992 121.134 -158.24 120.383 -157.466 119.61 C-156.621 118.767 -155.776 117.923 -154.905 117.054 C-154.05 116.195 -153.195 115.335 -152.314 114.45 C-151.454 113.595 -150.595 112.74 -149.71 111.858 C-145.983 108.126 -142.315 104.388 -138.88 100.384 C-133.851 94.529 -128.253 89.222 -122.759 83.81 C-119.115 80.199 -115.505 76.617 -112.189 72.7 C-105.722 65.158 -98.392 58.353 -91.337 51.369 C-77.792 37.948 -77.792 37.948 -72.783 32.043 C-53.262 9.067 -29.816 -0.112 0 0 Z " fill="#F9F9F9" transform="translate(534.3761138916016,447.61231994628906)"/>
<path d="M0 0 C84.248 -0.121 84.248 -0.121 119.402 -0.146 C127.449 -0.152 135.496 -0.158 143.542 -0.165 C144.551 -0.166 145.56 -0.166 146.599 -0.167 C162.883 -0.18 179.167 -0.204 195.451 -0.231 C212.162 -0.26 228.873 -0.276 245.583 -0.282 C255.895 -0.286 266.208 -0.299 276.52 -0.324 C283.59 -0.34 290.661 -0.344 297.731 -0.341 C301.811 -0.339 305.891 -0.342 309.971 -0.358 C313.708 -0.372 317.445 -0.373 321.182 -0.363 C323.17 -0.361 325.159 -0.374 327.147 -0.387 C337.372 -0.336 345.54 1.588 353 9 C357.624 15.695 359.149 21.295 359.138 29.382 C359.141 30.248 359.144 31.113 359.147 32.005 C359.155 34.916 359.156 37.827 359.158 40.738 C359.162 42.821 359.168 44.903 359.173 46.986 C359.184 51.476 359.193 55.966 359.199 60.456 C359.21 67.553 359.23 74.649 359.252 81.745 C359.314 101.926 359.368 122.106 359.401 142.287 C359.42 153.428 359.449 164.569 359.489 175.711 C359.51 181.61 359.526 187.508 359.528 193.407 C359.53 198.953 359.546 204.499 359.573 210.045 C359.58 212.084 359.582 214.122 359.578 216.16 C359.575 218.937 359.589 221.714 359.608 224.491 C359.602 225.302 359.597 226.113 359.591 226.949 C359.63 230.194 359.792 232.603 361.31 235.505 C363.989 237.875 367.035 237.48 370.438 237.438 C377.405 237.431 377.405 237.431 380.477 240.371 C382 243 382 243 381.938 245.625 C380.892 248.273 380.286 249.317 378 251 C374.982 251.361 374.982 251.361 371.234 251.341 C370.55 251.341 369.867 251.341 369.163 251.342 C366.907 251.34 364.651 251.316 362.395 251.293 C360.829 251.287 359.264 251.283 357.699 251.28 C353.581 251.269 349.463 251.239 345.345 251.206 C341.142 251.175 336.939 251.162 332.736 251.146 C324.491 251.114 316.245 251.063 308 251 C307.902 250.45 307.902 250.45 307.408 247.668 C307.144 246.212 306.879 244.755 306.615 243.299 C306.487 242.576 306.359 241.853 306.227 241.108 C305.256 235.807 303.823 231.226 301.188 226.5 C300.835 225.835 300.482 225.171 300.119 224.486 C297.494 219.641 294.675 215.125 291 211 C290.727 210.675 290.727 210.675 289.344 209.031 C280.304 199.072 266.048 191.65 252.572 190.857 C240.843 190.447 229.877 190.089 219 195 C218.053 195.424 217.105 195.848 216.129 196.285 C209.091 199.789 203.541 204.469 198 210 C197.675 210.319 197.675 210.319 196.031 211.934 C185.965 222.552 182.022 236.849 180 251 C120.6 251 61.2 251 0 251 C0 168.17 0 85.34 0 0 Z " fill="#000000" transform="translate(621,465)"/>
<path d="M0 0 C0 82.83 0 165.66 0 251 C-23.079 251.021 -46.159 251.041 -69.938 251.062 C-77.237 251.072 -84.537 251.081 -92.058 251.09 C-100.941 251.095 -100.941 251.095 -105.093 251.095 C-108.006 251.096 -110.919 251.1 -113.832 251.106 C-117.542 251.112 -121.251 251.114 -124.96 251.113 C-126.973 251.114 -128.986 251.119 -130.998 251.124 C-132.175 251.123 -133.352 251.122 -134.565 251.12 C-135.596 251.121 -136.628 251.122 -137.691 251.123 C-140 251 -140 251 -141 250 C-141.277 248.087 -141.52 246.169 -141.75 244.25 C-144.347 227.133 -153.043 212.326 -167 202 C-182.711 191.495 -199.382 188.488 -218.151 191.325 C-221.949 192.139 -225.452 193.441 -229 195 C-229.874 195.362 -230.748 195.724 -231.648 196.098 C-247.141 203.129 -257.398 215.671 -264 231 C-266.087 237.226 -267.135 243.513 -268 250 C-269.685 251.685 -271.788 251.153 -274.099 251.177 C-274.643 251.183 -274.643 251.183 -277.396 251.216 C-277.989 251.22 -277.989 251.22 -280.988 251.238 C-282.198 251.246 -283.408 251.254 -284.655 251.263 C-287.221 251.277 -289.788 251.287 -292.354 251.295 C-296.285 251.312 -300.216 251.356 -304.146 251.4 C-306.635 251.411 -309.124 251.419 -311.613 251.426 C-312.793 251.443 -313.972 251.461 -315.187 251.479 C-315.736 251.477 -315.736 251.477 -318.513 251.47 C-319.478 251.476 -320.443 251.482 -321.438 251.488 C-324.774 250.853 -325.978 249.688 -328 247 C-327.938 243.375 -327.938 243.375 -327 240 C-322.809 237.206 -319.075 237.663 -314.129 237.539 C-310.32 236.883 -309.355 236.012 -307 233 C-306.508 230.195 -306.508 230.195 -306.518 226.921 C-306.511 225.693 -306.504 224.464 -306.497 223.198 C-306.503 222.544 -306.508 221.889 -306.514 221.215 C-306.531 219.154 -306.524 217.093 -306.51 215.031 C-306.48 209.907 -306.493 204.782 -306.505 199.658 C-306.513 195.332 -306.505 191.006 -306.476 186.68 C-306.469 184.666 -306.486 182.651 -306.503 180.636 C-306.438 168.686 -303.394 159.66 -295 151 C-284.435 142.033 -269.932 139.478 -256.875 135.938 C-229.553 128.502 -229.553 128.502 -222 121 C-220.952 119.978 -219.904 118.956 -218.855 117.934 C-214.287 113.44 -209.783 108.947 -205.598 104.09 C-201.306 99.133 -196.639 94.588 -191.961 90 C-188.724 86.801 -185.588 83.581 -182.625 80.125 C-177.549 74.231 -171.92 68.877 -166.383 63.422 C-162.732 59.805 -159.117 56.215 -155.793 52.293 C-150.046 45.59 -143.583 39.519 -137.312 33.312 C-134.701 30.728 -132.094 28.141 -129.488 25.551 C-128.897 24.967 -128.305 24.384 -127.695 23.783 C-124.56 20.666 -121.763 17.458 -119 14 C-116.83 12.361 -114.729 10.878 -112.438 9.438 C-111.823 9.047 -111.209 8.656 -110.577 8.254 C-78.686 -11.437 -31.492 0 0 0 Z " fill="#000000" transform="translate(604,465)"/>
<path d="M0 0 C11.267 7.056 19.693 17.802 23.004 30.836 C25.187 44.397 22.911 57.133 15.383 68.703 C14.418 70.006 13.441 71.299 12.445 72.578 C11.868 73.444 11.29 74.311 10.695 75.203 C1.847 84.543 -9.584 89.648 -22.351 90.17 C-31.681 90.282 -39.367 89.414 -47.555 84.578 C-47.957 84.355 -47.957 84.355 -49.992 83.227 C-61.238 76.426 -67.856 66.172 -71.367 53.703 C-74.385 40.216 -72.428 27.177 -65.395 15.242 C-50.372 -6.509 -22.865 -12.726 0 0 Z " fill="#010101" transform="translate(889.5546875,677.421875)"/>
<path d="M0 0 C8.005 6.342 12.905 13.987 17 23.25 C17.366 23.967 17.732 24.683 18.109 25.422 C21.442 36.004 20.064 49.566 15.484 59.523 C9.165 71.132 2.114 78.651 -10 84.25 C-10.585 84.521 -11.169 84.791 -11.771 85.07 C-17.25 87.388 -22.276 87.793 -28.188 87.75 C-29.111 87.744 -30.034 87.739 -30.985 87.733 C-44.053 87.393 -53.603 82.437 -62.93 73.375 C-67.47 68.543 -70.341 63.288 -73 57.25 C-73.535 56.175 -74.07 55.1 -74.621 53.992 C-76.242 49.592 -76.422 46.072 -76.312 41.438 C-76.299 40.641 -76.286 39.844 -76.272 39.023 C-75.98 27.516 -73.456 19.941 -67 10.25 C-66.571 9.59 -66.141 8.93 -65.699 8.25 C-59.438 -0.125 -48.2 -6.43 -38.051 -8.379 C-24.021 -10.085 -11.768 -8.049 0 0 Z " fill="#010101" transform="translate(428,679.75)"/>
<path d="M0 0 C0.66 0.33 1.32 0.66 2 1 C-10.21 13.21 -22.42 25.42 -35 38 C-35.66 37.67 -36.32 37.34 -37 37 C-36.142 36.148 -35.285 35.295 -34.401 34.417 C-31.208 31.242 -28.018 28.064 -24.83 24.885 C-23.451 23.511 -22.072 22.139 -20.692 20.767 C-18.704 18.791 -16.719 16.812 -14.734 14.832 C-14.121 14.223 -13.507 13.615 -12.875 12.988 C-9.686 9.8 -6.792 6.549 -4 3 C-1.75 1.188 -1.75 1.188 0 0 Z " fill="#151515" transform="translate(489,476)"/>
<path d="M0 0 C-1.563 3.766 -3.906 6.136 -6.789 8.984 C-7.252 9.445 -7.716 9.905 -8.193 10.38 C-9.666 11.841 -11.145 13.296 -12.625 14.75 C-13.628 15.743 -14.631 16.737 -15.633 17.73 C-18.083 20.159 -20.54 22.581 -23 25 C-23.66 24.67 -24.32 24.34 -25 24 C-19.053 17.472 -13.078 10.974 -6.875 4.688 C-5.986 3.784 -5.096 2.88 -4.18 1.949 C-2 0 -2 0 0 0 Z " fill="#D7D7D7" transform="translate(478,465)"/>
<path d="M0 0 C0.66 0.33 1.32 0.66 2 1 C-1.96 4.96 -5.92 8.92 -10 13 C-10 8.418 -7.084 6.182 -4 3 C-1.625 1.062 -1.625 1.062 0 0 Z " fill="#232323" transform="translate(371,680)"/>
<path d="M0 0 C-1.591 4.136 -4.605 7.232 -8 10 C-8.66 10 -9.32 10 -10 10 C-8.5 6.1 -4.539 0 0 0 Z " fill="#D5D5D5" transform="translate(360,669)"/>
<path d="M0 0 C0.66 0.33 1.32 0.66 2 1 C-1.3 4.3 -4.6 7.6 -8 11 C-8.66 10.67 -9.32 10.34 -10 10 C-6.921 6.129 -3.999 2.971 0 0 Z " fill="#242424" transform="translate(314,612)"/>
</svg>
