<svg xmlns="http://www.w3.org/2000/svg" xmlns:xlink="http://www.w3.org/1999/xlink" width="2172" zoomAndPan="magnify" viewBox="0 0 1628.88 543.000006" height="724" preserveAspectRatio="xMidYMid meet" version="1.0"><defs><filter x="0%" y="0%" width="100%" height="100%" id="142edd8076"><feColorMatrix values="0 0 0 0 1 0 0 0 0 1 0 0 0 0 1 0 0 0 1 0" color-interpolation-filters="sRGB"></feColorMatrix></filter><filter x="0%" y="0%" width="100%" height="100%" id="8b9fa472ba"><feColorMatrix values="0 0 0 0 1 0 0 0 0 1 0 0 0 0 1 0.2126 0.7152 0.0722 0 0" color-interpolation-filters="sRGB"></feColorMatrix></filter><clipPath id="7f0c8efba5"><path d="M 1.4375 0 L 1627.324219 0 L 1627.324219 542 L 1.4375 542 Z M 1.4375 0 " clip-rule="nonzero"></path></clipPath><clipPath id="27b5ad5082"><path d="M 55.636719 54.199219 L 1573.09375 54.199219 L 1573.09375 487.652344 L 55.636719 487.652344 Z M 55.636719 54.199219 " clip-rule="nonzero"></path></clipPath><mask id="6a66bc7db7"><g filter="url(#142edd8076)"><g filter="url(#8b9fa472ba)" transform="matrix(0.748621, 0, 0, 0.748621, 1.437234, 10.532127)"><image x="0" y="0" width="2172" height="724" preserveAspectRatio="xMidYMid meet"></image></g></g></mask></defs><g clip-path="url(#7f0c8efba5)"><path fill="#ffffff" d="M 1.4375 0 L 1627.441406 0 L 1627.441406 542 L 1.4375 542 Z M 1.4375 0 " fill-opacity="1" fill-rule="nonzero"></path><path fill="#ffffff" d="M 1.4375 0 L 1627.441406 0 L 1627.441406 542 L 1.4375 542 Z M 1.4375 0 " fill-opacity="1" fill-rule="nonzero"></path></g><g clip-path="url(#27b5ad5082)"><g mask="url(#6a66bc7db7)"><g transform="matrix(0.748621, 0, 0, 0.748621, 1.437234, 10.532127)"><image x="0" y="0" width="2172" height="724" preserveAspectRatio="xMidYMid meet"></image></g></g></g></svg>